<?xml version="1.0" encoding="UTF-8"?>
<svg width="120px" height="42px" viewBox="0 0 120 42" version="1.1" xmlns="http://www.w3.org/2000/svg" xmlns:xlink="http://www.w3.org/1999/xlink">
    <!-- Generator: Sketch 52.2 (67145) - http://www.bohemiancoding.com/sketch -->
    <title>logo</title>
    <desc>Created with Sketch.</desc>
    <g id="页面-1" stroke="none" stroke-width="1" fill="none" fill-rule="evenodd">
        <g id="home" transform="translate(-20.000000, -53.000000)" fill="#CEDAEA">
            <path d="M31.5384615,65.0156379 C31.5384615,68.5715466 28.4382476,69.9230769 25.0752401,69.9230769 C23.9249405,69.9230769 21.8855927,69.8828205 20,69.1620496 L20,66.2864292 C21.3011911,66.7762911 23.1788538,67.2154932 24.4483246,67.2154932 C26.4248928,67.2154932 27.5822414,66.3608357 27.5822414,65.4206899 C27.5822414,64.3572871 26.8319693,63.9239651 23.9872796,62.4867203 C22.9343435,61.9550189 20.1647691,60.990674 20.1647691,57.5881015 C20.1647691,54.7767105 22.3741727,53 26.1504245,53 C28.1780975,53 29.2949146,53.2383723 30.4668017,53.7004165 L30.4668017,56.3795042 C29.5361207,55.9188169 28.4309783,55.3267308 26.8103819,55.3267308 C25.0203905,55.3267308 23.7912308,56.0536081 23.7912308,57.3560617 C23.7912308,57.8613024 23.8760384,58.5130946 25.8528268,59.4914614 C28.2501289,60.6778952 31.5384615,61.459503 31.5384615,65.0156379 Z M136.404015,53 L140,53 L140,69.1538462 L136.404015,69.1538462 L136.404015,62.4650529 L130.51928,62.4650529 L130.51928,69.1538462 L126.923077,69.1538462 L126.923077,53 L130.51928,53 L130.51928,59.6885684 L136.404015,59.6885684 L136.404015,53 Z M92.0707415,66.136033 C93.1443361,64.9645258 93.188174,62.9661788 93.188174,61.4728464 C93.188174,59.9799664 93.1443361,57.9585511 92.0707415,56.7870439 C91.4567937,56.0981615 90.5142787,55.7075838 89.6153846,55.7075838 C88.7164905,55.7075838 87.7746266,56.0981615 87.1608959,56.7870439 C86.0864331,57.9585511 86.0430292,59.9799664 86.0430292,61.4728464 C86.0430292,62.9661788 86.0864331,64.9645258 87.1608959,66.136033 C87.7746266,66.8249154 88.7164905,67.2154932 89.6153846,67.2154932 C90.5142787,67.2154932 91.4567937,66.8249154 92.0707415,66.136033 Z M94.6860415,54.8418445 C96.5999351,56.6149364 96.9230769,58.8023529 96.9230769,61.4728464 C96.9230769,64.1437923 96.5999351,66.3083667 94.6860415,68.0810063 C93.3439939,69.3244322 91.504538,69.9230769 89.6153846,69.9230769 C87.7264483,69.9230769 85.8872093,69.3244322 84.5445107,68.0810063 C82.6310511,66.3083667 82.3076923,64.1437923 82.3076923,61.4728464 C82.3076923,58.8023529 82.6310511,56.6149364 84.5445107,54.8418445 C85.8872093,53.5984185 87.7264483,53 89.6153846,53 C91.504538,53 93.3439939,53.5984185 94.6860415,54.8418445 Z M75.0054355,63.3094442 L77.2692586,53 L80.7692308,53 L77.2222627,69.1538462 L73.6401033,69.1538462 L70.7695649,58.3377672 L67.8990264,69.1538462 L64.3168671,69.1538462 L60.7692308,53 L64.2689802,53 L66.5332488,63.3094442 L69.2690359,53 L72.2694257,53 L75.0054355,63.3094442 Z M53.8285529,59.8108983 L57.3334378,53 L60.7692308,53 L55.4517759,62.4720239 L55.4517759,69.1538462 L51.6888895,69.1538462 L51.6888895,62.6179653 L46.9230769,53 L50.5469049,53 L53.8285529,59.8108983 Z M33.0769231,69.1538462 L33.0769231,53 L36.9230769,53 L36.9230769,69.1538462 L33.0769231,69.1538462 Z M43.2179089,53 L46.9230769,53 L42.5195797,59.6035671 L46.8165407,69.1538462 L42.7832231,69.1538462 L38.4615385,60.0996329 L43.2179089,53 Z M111.798606,57.8799295 C111.798606,59.5511721 110.941579,61.2658149 108.79311,62.3188866 L112.307692,69.1538462 L108.232275,69.1538462 L104.195443,61.3042678 C107.007335,60.4551543 107.977164,59.1270651 107.977164,57.8799295 C107.977164,56.702504 107.266304,55.3557505 105.599687,55.3557505 L102.797554,55.3557505 L102.797554,69.1538462 L99.2307692,69.1538462 L99.2307692,53 L106.345273,53 C109.318539,53 111.798606,54.9338922 111.798606,57.8799295 Z M125.366251,56.4434719 L120.422259,56.4434719 L120.422259,69.6357339 L116.735764,69.6357339 L116.735764,56.4434719 L112.831811,56.4434719 L111.624255,53.8049314 L124.159143,53.8049314 L125.366251,56.4434719 Z M119.39297,83.49 C119.39297,85.1280416 118.547546,86.808395 116.427157,87.8401871 L119.895521,94.5384615 L115.873992,94.5384615 L111.890536,86.8458586 C114.665093,86.0139459 115.622269,84.7124158 115.622269,83.49 C115.622269,82.336341 114.921071,81.0165198 113.276358,81.0165198 L110.511207,81.0165198 L110.511207,94.5384615 L106.991782,94.5384615 L106.991782,78.7078794 L114.011821,78.7078794 C116.945833,78.7078794 119.39297,80.6030977 119.39297,83.49 Z M96.6800779,88.8111559 L99.6494742,78.7078794 L103.168452,78.7078794 L98.5375463,94.5384615 L94.9529503,94.5384615 L90.0358325,78.7078794 L93.5550341,78.7078794 L96.6800779,88.8111559 Z M66.9230769,94.5384615 L66.9230769,92.2307692 L72.3076923,92.2307692 L72.3076923,94.5384615 L66.9230769,94.5384615 Z M76.3799025,84.3581461 L80.323334,84.3581461 L80.323334,82.1707893 L76.3799025,82.1707893 L76.3799025,84.3581461 Z M76.3799025,88.5374311 L80.323334,88.5374311 L80.323334,86.2096453 L76.3799025,86.2096453 L76.3799025,88.5374311 Z M80.323334,92.4349564 L80.323334,90.3880287 L76.3799025,90.3880287 L76.3799025,91.5937347 C76.3799025,92.0583001 76.7515593,92.4349564 77.2101806,92.4349564 L80.323334,92.4349564 Z M86.9230769,82.1707893 L83.0634962,82.1707893 L83.0634962,84.3581461 L86.9230769,84.3581461 L86.9230769,86.2096453 L83.0634962,86.2096453 L83.0634962,88.5365295 L86.9230769,88.5365295 L86.9230769,90.3880287 L83.0634962,90.3880287 L83.0634962,92.4349564 L86.9230769,92.4349564 L86.9230769,94.5384615 L76.3799025,94.5384615 C75.0051507,94.5384615 73.8895132,93.4084925 73.8895132,92.0143456 L73.8895132,82.4225698 L72.3076923,82.4225698 L74.4266473,78.3846154 L77.3414059,78.3846154 L76.3258555,80.3199663 L80.323334,80.3199663 L80.323334,78.3846154 L83.0634962,78.3846154 L83.0634962,80.3199663 L86.9230769,80.3199663 L86.9230769,82.1707893 Z M69.8617074,88.7234092 L72.3076923,88.7234092 L72.3076923,90.6923077 L68.1470231,90.6923077 C67.7949314,90.6923077 67.470174,90.5723145 67.2109322,90.3705678 C66.775536,90.0316861 66.6538333,89.4189739 66.9106889,88.9286722 L68.7694205,85.3879954 L67.4612795,85.3879954 C67.204424,85.3879954 66.9612356,85.3229442 66.7475509,85.2097638 C66.1969602,84.9161542 65.9954241,84.2175128 66.2874237,83.6606216 L68.6535752,79.1538462 L71.4965581,79.1538462 L68.9991587,83.9111567 L71.284392,83.9111567 C71.7564508,83.9111567 72.0653717,84.3981619 71.8900851,84.8278076 C71.8829261,84.8612123 71.8709945,84.8950565 71.8540733,84.9275822 L69.8617074,88.7234092 Z M53.8461538,90.6923077 L53.8461538,79.1538462 L56.1538462,79.1538462 L56.1538462,90.6923077 L53.8461538,90.6923077 Z M49.3727544,83 L47.9958565,80.2653898 L44.3127035,80.2653898 L42.9340702,83 L40,83 L42.2331474,78.56619 C42.2899848,78.4546808 42.3995379,78.3846154 42.519504,78.3846154 L48.9503784,78.3846154 L48.9503784,78.3896528 C49.6159405,78.4386527 50.2153369,78.8457646 50.5314138,79.4731473 L52.3076923,83 L49.3727544,83 Z M44.5573569,92.3510285 L52.3076923,92.3510285 L52.3076923,94.5384615 L43.7337169,94.5384615 C42.0963657,94.5384615 40.7692308,93.1823612 40.7692308,91.509552 L40.7692308,84.1051 C40.7692308,83.919583 40.916396,83.7692308 41.0986426,83.7692308 L51.6689466,83.7692308 C51.8514138,83.7692308 51.9985791,83.919583 51.9985791,84.1051 L51.9985791,88.560665 C51.9985791,89.7220062 51.0774173,90.664018 49.9398101,90.664018 L45.6819466,90.664018 L44.6745155,88.6445196 L49.0340929,88.6445196 C49.2163395,88.6445196 49.3635048,88.4941674 49.3635048,88.3086503 L49.3635048,85.6198929 L43.4040844,85.6198929 L43.4040844,91.1727811 C43.4040844,91.8237813 43.9208176,92.3510285 44.5573569,92.3510285 Z M58.1934579,78.3846154 L60.7692308,78.3846154 L60.7692308,91.6775864 C60.7692308,93.2579201 59.5439971,94.5384615 58.0319195,94.5384615 L54.9590223,94.5384615 L53.8461538,92.3511048 L57.2276779,92.3511048 C57.7606039,92.3511048 58.1934579,91.8987114 58.1934579,91.3410527 L58.1934579,78.3846154 Z" id="logo"></path>
        </g>
    </g>
</svg>