<?xml version="1.0" encoding="UTF-8"?>
<svg width="541px" height="375px" viewBox="0 0 541 375" version="1.1" xmlns="http://www.w3.org/2000/svg" xmlns:xlink="http://www.w3.org/1999/xlink">
    <!-- Generator: Sketch 52.2 (67145) - http://www.bohemiancoding.com/sketch -->
    <title>分组</title>
    <desc>Created with Sketch.</desc>
    <defs>
        <polygon id="path-1" points="0 374.902 540.473 374.902 540.473 0 0 0"></polygon>
    </defs>
    <g id="页面-1" stroke="none" stroke-width="1" fill="none" fill-rule="evenodd">
        <g id="分组">
            <path d="M255.1083,342.0045 C255.1083,333.4425 247.9663,327.8215 239.4043,327.8215 L218.9193,327.8215 L218.9193,374.7695 L229.1893,374.7695 L229.1893,334.6685 L237.2583,334.6685 C242.0573,334.6685 244.1043,338.5825 244.1043,342.0045 C244.1043,345.6295 241.3113,349.4885 233.2143,351.9565 L244.8383,374.7695 L256.5743,374.7695 L246.4533,354.9045 C252.6403,351.8455 255.1083,346.8615 255.1083,342.0045" id="Fill-1" fill="#FFFFFF"></path>
            <polygon id="Fill-3" fill="#FFFFFF" points="193.6415 357.7848 184.5215 327.8218 174.2525 327.8218 188.6005 374.7688 199.0615 374.7688 212.5755 327.8218 202.3065 327.8218"></polygon>
            <path d="M302.8945,374.5045 L299.2195,357.3185 L306.1725,357.3185 L309.9985,374.5045 L302.8945,374.5045 Z M298.9705,345.7465 L301.2055,345.7465 L301.2055,340.1335 L298.9705,340.1335 L298.9705,345.7465 Z M298.9705,336.9545 L301.2055,336.9545 L301.2055,331.2925 L298.9705,331.2925 L298.9705,336.9545 Z M288.1435,345.7465 L290.4775,345.7465 L290.4775,340.1335 L288.1435,340.1335 L288.1435,345.7465 Z M288.1435,336.9545 L290.4775,336.9545 L290.4775,331.2925 L288.1435,331.2925 L288.1435,336.9545 Z M277.5645,334.4215 L266.5375,334.4215 L264.9485,327.9145 L275.9745,327.9145 L277.5645,334.4215 Z M287.1505,374.3065 L279.3515,374.3065 L280.4945,368.4945 L267.3815,374.7035 L267.3815,339.6875 L262.4645,339.6875 L262.4645,336.4085 L278.3585,336.4085 L277.5145,339.3895 L277.5145,366.3095 L280.4945,364.8685 L280.6435,367.9975 L283.1765,354.6865 L279.2035,354.6865 L279.2035,351.4585 L290.4775,351.4585 L290.4775,348.9255 L280.1965,348.9255 L280.1965,328.1635 L309.9485,328.1635 L308.9055,331.6905 L308.9055,348.9255 L298.9705,348.9255 L298.9705,351.4585 L309.5495,351.4585 L309.5495,354.6865 L298.9705,354.6865 L298.9705,374.5045 L290.4775,374.5045 L290.4775,357.3685 L287.1505,374.3065 Z" id="Fill-5" fill="#FFFFFF"></path>
            <mask id="mask-2" fill="white">
                <use xlink:href="#path-1"></use>
            </mask>
            <g id="Clip-8"></g>
            <path d="M332.565,354.19 L350.346,354.19 L350.346,347.833 L332.565,347.833 L332.565,354.19 Z M329.435,344.505 L353.525,344.505 L353.525,340.034 L329.435,340.034 L329.435,344.505 Z M322.481,335.316 L319.699,327.419 L330.677,327.419 L333.458,335.316 L322.481,335.316 Z M364.749,346.144 L361.62,346.144 L361.62,358.014 L347.862,358.014 L347.862,362.385 L362.267,362.385 L362.267,365.664 L347.862,365.664 L347.862,371.574 L364.948,371.574 L364.948,374.902 L318.16,374.902 L318.16,371.574 L335.693,371.574 L335.693,365.664 L320.346,365.664 L320.346,362.385 L335.693,362.385 L335.693,358.014 L322.034,358.014 L322.034,346.144 L318.16,346.144 L318.16,336.707 L335.693,336.707 L335.693,327.419 L348.358,327.419 L347.862,329.554 L347.862,336.707 L348.16,336.707 L352.879,327.419 L363.209,327.419 L358.491,336.707 L365.692,336.707 L364.749,340.233 L364.749,346.144 Z" id="Fill-7" fill="#FFFFFF" mask="url(#mask-2)"></path>
            <path d="M241.3154,49.8492 C242.9774,49.6632 244.5484,49.5712 246.0274,49.3862 C248.4294,49.2022 249.9084,49.1102 250.5544,49.0172 C251.2014,49.0172 252.2174,48.8322 253.6024,48.5552 C253.8794,46.1532 254.0654,43.4732 254.2504,40.3312 C254.4344,37.1912 254.5274,34.7882 254.5274,32.9402 C254.5274,31.0922 253.1414,30.1682 250.5544,30.1682 C247.4134,30.1682 244.1784,30.8162 240.8534,32.0172 C240.4834,32.2022 240.2064,32.2932 240.0214,32.2932 L240.0214,37.9302 C240.0214,42.3652 240.0214,46.2452 240.1144,49.6632 L240.1144,50.0342 L241.3154,49.8492 Z M252.2174,24.0712 C254.0654,24.0712 255.8214,24.4402 257.2994,25.1792 C258.6844,25.9182 259.8854,26.7502 260.9024,27.8592 C261.9194,28.9672 262.4724,30.0772 262.4724,31.1852 C262.4724,32.9402 262.3804,35.4352 262.2894,38.7612 L262.0114,48.6482 L262.0114,50.1252 C262.0114,50.5882 261.7344,51.0492 261.3644,51.5112 C262.0114,52.2502 262.3804,52.8052 262.3804,53.2672 C262.3804,55.1152 261.4574,56.0382 259.7934,56.0382 C258.6844,56.0382 257.4834,55.9472 256.3754,55.6692 C255.2664,55.4852 254.1584,55.3002 253.0484,55.3002 C251.9404,55.3002 250.0914,55.3922 247.5054,55.5772 C244.8264,55.8542 242.7004,56.2232 241.0384,56.5932 C240.6684,56.7782 240.2974,56.8702 240.0214,56.8702 C239.6524,57.7942 239.0044,58.3482 237.8964,58.5342 C235.8634,58.5342 234.4774,58.1632 233.5534,57.2412 C232.7224,56.3162 232.3524,55.4852 232.3524,54.6532 L232.3524,53.0822 L231.8914,28.7832 C231.7984,28.3212 231.7984,27.8592 231.7984,27.3042 L231.7984,26.3802 C231.7984,24.8102 232.6294,23.9792 234.2934,23.9792 C235.5864,23.9792 236.7874,24.1632 237.8964,24.4402 C238.8204,24.6252 239.4664,24.9952 239.8364,25.3652 C244.3644,24.5332 248.5214,24.0712 252.2174,24.0712 Z M227.2704,84.3112 C221.2654,84.8662 216.0904,85.3282 211.8414,85.8822 L205.4654,86.7132 L205.2824,86.7132 C205.2824,87.3612 205.3744,87.9142 205.3744,88.4682 C205.5584,91.2412 205.6514,92.9042 205.8364,93.4582 L206.0204,94.1052 C209.7164,93.5502 213.2274,93.1812 216.4614,92.9042 C220.8964,92.5352 225.1464,92.1652 229.2114,91.8882 C235.4944,91.5182 239.5594,91.2412 241.2224,91.0562 C241.1294,90.8712 241.1294,90.7792 241.1294,90.7792 C241.1294,90.2242 241.4994,89.4862 242.2394,88.5622 C242.7004,88.1922 243.0704,86.5292 243.3474,83.4802 C238.0824,83.6642 232.7224,83.9422 227.2704,84.3112 Z M205.0954,80.4312 C205.8364,80.5232 206.4824,80.5232 207.1284,80.5232 C208.4224,80.5232 212.1184,80.2452 218.2164,79.6922 C224.2214,79.1382 228.7494,78.7682 231.8914,78.3982 C234.9404,78.1202 237.7114,77.8432 240.2974,77.4742 L242.9774,76.9192 L243.6254,76.8282 C243.6254,75.7192 243.7174,74.7032 243.7174,73.7792 C243.7174,72.7622 243.5324,71.8382 243.3474,71.0992 C242.7944,69.9912 241.7764,69.4362 240.2974,69.3442 C230.5044,69.4362 219.9714,70.4522 208.7934,72.3002 L205.7434,72.8552 C205.2824,75.4412 205.0954,77.3822 205.0954,78.6752 L205.0954,80.4312 Z M253.0484,95.2142 C253.0484,96.8772 252.2174,97.8012 250.5544,97.8942 C249.4454,97.8942 248.3364,97.8012 247.2284,97.6162 C246.0274,97.3382 244.9184,97.2462 243.9954,97.2462 C240.8534,97.2462 235.5864,97.4312 228.1944,97.8942 C220.8024,98.3562 214.7064,99.0012 209.9014,99.9262 C208.7934,100.1112 207.8684,100.3882 207.1284,100.5722 C206.4824,100.7582 205.9274,100.8502 205.3744,100.8502 C204.8194,101.4962 203.8954,101.8672 202.7864,101.8672 C200.9394,101.6812 199.6454,100.5722 198.9064,98.4482 C197.8904,96.7852 197.4274,90.2242 197.4274,78.6752 C197.4274,76.9192 197.4274,74.4252 197.6124,71.1922 C197.6124,70.5452 197.5204,69.8062 197.5204,68.9742 C197.4274,68.1422 197.3354,67.5882 197.3354,67.2182 C197.3354,65.3702 198.5374,64.3542 200.9394,64.3542 C201.9554,64.4472 203.3404,65.0002 205.0034,66.0182 L205.0954,66.1102 C219.6954,64.1692 231.9834,63.1542 241.9614,63.1542 C243.9954,63.1542 245.8414,63.6152 247.5054,64.4472 C248.9844,65.2792 250.0914,66.2942 251.0164,67.4952 C251.9404,68.6972 252.4014,70.3602 252.4014,72.5782 C252.4014,76.1812 252.2174,80.9852 252.0324,86.8982 C252.0324,87.7302 251.9404,88.5622 251.8474,89.3932 C251.6634,90.7792 251.4784,91.8882 251.1094,92.6262 C252.4014,93.6442 253.0484,94.4752 253.0484,95.2142 Z M201.2154,20.4672 C200.6614,21.1142 199.8304,22.5002 198.5374,24.5332 C200.2004,24.3472 201.9554,24.1632 203.9874,23.9792 C208.7934,23.6092 213.5044,23.0542 218.1244,22.4082 C219.5094,22.2232 220.3414,22.0382 220.7114,22.0382 C221.6354,22.0382 222.7434,22.5002 224.2214,23.3312 C225.7004,24.3472 226.4394,25.2722 226.4394,26.1032 C226.4394,28.1362 225.1464,29.2452 222.7434,29.2452 C222.3744,29.2452 221.5434,29.2452 220.3414,29.0602 C219.0474,28.9672 218.2164,28.8752 217.8464,28.8752 C216.5534,28.8752 214.8894,28.9672 212.8574,29.0602 C212.4874,29.7062 212.0264,30.4462 211.4724,31.3702 C210.7324,32.4782 209.6244,34.6962 207.9614,38.1152 C214.6134,37.5602 218.7704,37.0052 220.2494,36.6362 C222.0974,36.2662 223.2984,35.9902 223.8524,35.9902 C224.7774,35.9902 225.6084,36.1742 226.2544,36.5442 C227.0864,36.9132 227.9184,37.4682 228.6574,38.0222 C229.2114,38.5772 229.5814,39.5002 229.5814,40.6092 C229.5814,41.4412 229.3034,42.1802 228.7494,42.7342 C228.1024,43.4732 227.2704,43.7502 226.3474,43.7502 C225.9784,43.7502 225.5154,43.6582 224.8694,43.4732 C224.1294,43.4732 223.3904,43.4732 222.8364,43.3812 C222.1894,43.3812 221.4504,43.2882 220.7114,43.2882 C217.9394,43.2882 213.3194,43.6582 207.0374,44.2122 L204.9124,44.3972 L204.2644,45.8752 C205.0954,46.3372 206.6674,46.9842 208.8844,47.8162 C211.2874,48.9242 214.2444,50.3102 217.8464,52.0662 C221.2654,53.8222 223.2984,54.8372 223.8524,55.1152 L225.4224,55.6692 C225.8844,55.8542 226.1624,55.9472 226.1624,56.1312 C226.1624,57.5172 225.9784,58.7182 225.6084,59.6422 C225.2384,60.7512 224.5914,61.4902 223.8524,61.8602 C223.1134,62.2292 222.2814,62.4142 221.3574,62.4142 C220.8024,62.4142 220.0654,62.1372 219.3254,61.4902 C218.5864,60.9362 217.0154,59.8272 214.5204,58.0722 C211.8414,56.4092 208.7934,54.6532 205.3744,52.8052 C204.2644,52.2502 203.2494,51.7882 202.3254,51.3272 C202.0474,51.2352 201.8624,51.1422 201.8624,51.0492 C198.7214,57.7022 196.9654,61.6752 196.5034,63.1542 C195.7644,64.8162 195.2114,66.1102 194.6564,67.2182 C193.9174,68.3282 192.9004,68.7892 191.6994,68.7892 C190.6824,68.7892 189.5754,68.0502 188.2804,66.3872 C187.1714,64.9092 186.6184,63.7072 186.6184,62.6922 C186.6184,62.3222 186.8024,61.6752 187.3564,60.9362 L190.0364,57.4252 C191.0524,55.9472 192.7154,52.8972 195.1184,48.4622 C195.6714,47.4472 196.2264,46.4302 196.7814,45.4132 C195.3024,45.5982 194.1014,45.7832 193.0864,45.9682 C189.8514,46.7072 187.9114,47.0772 187.2644,47.0772 C186.5254,47.0772 185.8774,46.7992 185.3244,46.1532 C184.5864,45.6912 184.1234,45.1362 183.8454,44.4902 C183.5684,43.8432 183.4764,43.1042 183.4764,42.2722 C183.4764,41.4412 184.1234,40.5172 185.2324,39.5922 C185.2324,39.6852 185.5084,39.7782 185.9704,39.7782 C186.1564,39.9622 186.6184,39.9622 187.1714,39.9622 C187.6344,40.0552 188.1884,40.0552 188.7434,40.0552 C189.1124,40.0552 192.9924,39.6852 200.2924,38.8542 C200.9394,37.6532 201.5854,36.4522 202.2324,35.2502 C203.4334,32.9402 204.4504,31.0922 205.1894,29.7062 C202.1394,30.0772 198.9064,30.5382 195.5804,31.0922 L194.2874,31.5542 L192.4384,34.7882 C192.0694,35.6202 191.6994,36.2662 191.3304,36.7292 C190.6824,37.7452 189.8514,38.2062 188.7434,38.2062 C187.8194,38.2062 186.8024,37.5602 185.6944,36.0812 C184.5864,34.6962 184.1234,33.5872 184.1234,32.7552 C184.1234,32.5712 184.2154,32.3862 184.5864,32.0172 C184.9554,31.7392 185.4174,31.2782 186.1564,30.5382 C186.7104,29.9842 187.7264,28.6912 189.1124,26.7502 C190.4994,24.9022 191.8844,23.0542 193.1774,21.2062 C194.4704,19.3592 195.3954,18.1582 195.9494,17.6032 C196.5034,16.4952 197.5204,15.9402 198.8134,15.9402 C199.9224,15.9402 200.7534,16.3092 201.3084,16.9562 C201.7704,17.5112 202.0474,18.1582 202.2324,18.8972 C202.2324,19.0812 201.8624,19.6352 201.2154,20.4672 Z" id="Fill-9" fill="#CEDAEA" mask="url(#mask-2)"></path>
            <path d="M241.3154,49.8492 C242.9774,49.6632 244.5484,49.5712 246.0274,49.3862 C248.4294,49.2022 249.9084,49.1102 250.5544,49.0172 C251.2014,49.0172 252.2174,48.8322 253.6024,48.5552 C253.8794,46.1532 254.0654,43.4732 254.2504,40.3312 C254.4344,37.1912 254.5274,34.7882 254.5274,32.9402 C254.5274,31.0922 253.1414,30.1682 250.5544,30.1682 C247.4134,30.1682 244.1784,30.8162 240.8534,32.0172 C240.4834,32.2022 240.2064,32.2932 240.0214,32.2932 L240.0214,37.9302 C240.0214,42.3652 240.0214,46.2452 240.1144,49.6632 L240.1144,50.0342 L241.3154,49.8492 Z M252.2174,24.0712 C254.0654,24.0712 255.8214,24.4402 257.2994,25.1792 C258.6844,25.9182 259.8854,26.7502 260.9024,27.8592 C261.9194,28.9672 262.4724,30.0772 262.4724,31.1852 C262.4724,32.9402 262.3804,35.4352 262.2894,38.7612 L262.0114,48.6482 L262.0114,50.1252 C262.0114,50.5882 261.7344,51.0492 261.3644,51.5112 C262.0114,52.2502 262.3804,52.8052 262.3804,53.2672 C262.3804,55.1152 261.4574,56.0382 259.7934,56.0382 C258.6844,56.0382 257.4834,55.9472 256.3754,55.6692 C255.2664,55.4852 254.1584,55.3002 253.0484,55.3002 C251.9404,55.3002 250.0914,55.3922 247.5054,55.5772 C244.8264,55.8542 242.7004,56.2232 241.0384,56.5932 C240.6684,56.7782 240.2974,56.8702 240.0214,56.8702 C239.6524,57.7942 239.0044,58.3482 237.8964,58.5342 C235.8634,58.5342 234.4774,58.1632 233.5534,57.2412 C232.7224,56.3162 232.3524,55.4852 232.3524,54.6532 L232.3524,53.0822 L231.8914,28.7832 C231.7984,28.3212 231.7984,27.8592 231.7984,27.3042 L231.7984,26.3802 C231.7984,24.8102 232.6294,23.9792 234.2934,23.9792 C235.5864,23.9792 236.7874,24.1632 237.8964,24.4402 C238.8204,24.6252 239.4664,24.9952 239.8364,25.3652 C244.3644,24.5332 248.5214,24.0712 252.2174,24.0712 Z M227.2704,84.3112 C221.2654,84.8662 216.0904,85.3282 211.8414,85.8822 L205.4654,86.7132 L205.2824,86.7132 C205.2824,87.3612 205.3744,87.9142 205.3744,88.4682 C205.5584,91.2412 205.6514,92.9042 205.8364,93.4582 L206.0204,94.1052 C209.7164,93.5502 213.2274,93.1812 216.4614,92.9042 C220.8964,92.5352 225.1464,92.1652 229.2114,91.8882 C235.4944,91.5182 239.5594,91.2412 241.2224,91.0562 C241.1294,90.8712 241.1294,90.7792 241.1294,90.7792 C241.1294,90.2242 241.4994,89.4862 242.2394,88.5622 C242.7004,88.1922 243.0704,86.5292 243.3474,83.4802 C238.0824,83.6642 232.7224,83.9422 227.2704,84.3112 Z M205.0954,80.4312 C205.8364,80.5232 206.4824,80.5232 207.1284,80.5232 C208.4224,80.5232 212.1184,80.2452 218.2164,79.6922 C224.2214,79.1382 228.7494,78.7682 231.8914,78.3982 C234.9404,78.1202 237.7114,77.8432 240.2974,77.4742 L242.9774,76.9192 L243.6254,76.8282 C243.6254,75.7192 243.7174,74.7032 243.7174,73.7792 C243.7174,72.7622 243.5324,71.8382 243.3474,71.0992 C242.7944,69.9912 241.7764,69.4362 240.2974,69.3442 C230.5044,69.4362 219.9714,70.4522 208.7934,72.3002 L205.7434,72.8552 C205.2824,75.4412 205.0954,77.3822 205.0954,78.6752 L205.0954,80.4312 Z M253.0484,95.2142 C253.0484,96.8772 252.2174,97.8012 250.5544,97.8942 C249.4454,97.8942 248.3364,97.8012 247.2284,97.6162 C246.0274,97.3382 244.9184,97.2462 243.9954,97.2462 C240.8534,97.2462 235.5864,97.4312 228.1944,97.8942 C220.8024,98.3562 214.7064,99.0012 209.9014,99.9262 C208.7934,100.1112 207.8684,100.3882 207.1284,100.5722 C206.4824,100.7582 205.9274,100.8502 205.3744,100.8502 C204.8194,101.4962 203.8954,101.8672 202.7864,101.8672 C200.9394,101.6812 199.6454,100.5722 198.9064,98.4482 C197.8904,96.7852 197.4274,90.2242 197.4274,78.6752 C197.4274,76.9192 197.4274,74.4252 197.6124,71.1922 C197.6124,70.5452 197.5204,69.8062 197.5204,68.9742 C197.4274,68.1422 197.3354,67.5882 197.3354,67.2182 C197.3354,65.3702 198.5374,64.3542 200.9394,64.3542 C201.9554,64.4472 203.3404,65.0002 205.0034,66.0182 L205.0954,66.1102 C219.6954,64.1692 231.9834,63.1542 241.9614,63.1542 C243.9954,63.1542 245.8414,63.6152 247.5054,64.4472 C248.9844,65.2792 250.0914,66.2942 251.0164,67.4952 C251.9404,68.6972 252.4014,70.3602 252.4014,72.5782 C252.4014,76.1812 252.2174,80.9852 252.0324,86.8982 C252.0324,87.7302 251.9404,88.5622 251.8474,89.3932 C251.6634,90.7792 251.4784,91.8882 251.1094,92.6262 C252.4014,93.6442 253.0484,94.4752 253.0484,95.2142 Z M201.2154,20.4672 C200.6614,21.1142 199.8304,22.5002 198.5374,24.5332 C200.2004,24.3472 201.9554,24.1632 203.9874,23.9792 C208.7934,23.6092 213.5044,23.0542 218.1244,22.4082 C219.5094,22.2232 220.3414,22.0382 220.7114,22.0382 C221.6354,22.0382 222.7434,22.5002 224.2214,23.3312 C225.7004,24.3472 226.4394,25.2722 226.4394,26.1032 C226.4394,28.1362 225.1464,29.2452 222.7434,29.2452 C222.3744,29.2452 221.5434,29.2452 220.3414,29.0602 C219.0474,28.9672 218.2164,28.8752 217.8464,28.8752 C216.5534,28.8752 214.8894,28.9672 212.8574,29.0602 C212.4874,29.7062 212.0264,30.4462 211.4724,31.3702 C210.7324,32.4782 209.6244,34.6962 207.9614,38.1152 C214.6134,37.5602 218.7704,37.0052 220.2494,36.6362 C222.0974,36.2662 223.2984,35.9902 223.8524,35.9902 C224.7774,35.9902 225.6084,36.1742 226.2544,36.5442 C227.0864,36.9132 227.9184,37.4682 228.6574,38.0222 C229.2114,38.5772 229.5814,39.5002 229.5814,40.6092 C229.5814,41.4412 229.3034,42.1802 228.7494,42.7342 C228.1024,43.4732 227.2704,43.7502 226.3474,43.7502 C225.9784,43.7502 225.5154,43.6582 224.8694,43.4732 C224.1294,43.4732 223.3904,43.4732 222.8364,43.3812 C222.1894,43.3812 221.4504,43.2882 220.7114,43.2882 C217.9394,43.2882 213.3194,43.6582 207.0374,44.2122 L204.9124,44.3972 L204.2644,45.8752 C205.0954,46.3372 206.6674,46.9842 208.8844,47.8162 C211.2874,48.9242 214.2444,50.3102 217.8464,52.0662 C221.2654,53.8222 223.2984,54.8372 223.8524,55.1152 L225.4224,55.6692 C225.8844,55.8542 226.1624,55.9472 226.1624,56.1312 C226.1624,57.5172 225.9784,58.7182 225.6084,59.6422 C225.2384,60.7512 224.5914,61.4902 223.8524,61.8602 C223.1134,62.2292 222.2814,62.4142 221.3574,62.4142 C220.8024,62.4142 220.0654,62.1372 219.3254,61.4902 C218.5864,60.9362 217.0154,59.8272 214.5204,58.0722 C211.8414,56.4092 208.7934,54.6532 205.3744,52.8052 C204.2644,52.2502 203.2494,51.7882 202.3254,51.3272 C202.0474,51.2352 201.8624,51.1422 201.8624,51.0492 C198.7214,57.7022 196.9654,61.6752 196.5034,63.1542 C195.7644,64.8162 195.2114,66.1102 194.6564,67.2182 C193.9174,68.3282 192.9004,68.7892 191.6994,68.7892 C190.6824,68.7892 189.5754,68.0502 188.2804,66.3872 C187.1714,64.9092 186.6184,63.7072 186.6184,62.6922 C186.6184,62.3222 186.8024,61.6752 187.3564,60.9362 L190.0364,57.4252 C191.0524,55.9472 192.7154,52.8972 195.1184,48.4622 C195.6714,47.4472 196.2264,46.4302 196.7814,45.4132 C195.3024,45.5982 194.1014,45.7832 193.0864,45.9682 C189.8514,46.7072 187.9114,47.0772 187.2644,47.0772 C186.5254,47.0772 185.8774,46.7992 185.3244,46.1532 C184.5864,45.6912 184.1234,45.1362 183.8454,44.4902 C183.5684,43.8432 183.4764,43.1042 183.4764,42.2722 C183.4764,41.4412 184.1234,40.5172 185.2324,39.5922 C185.2324,39.6852 185.5084,39.7782 185.9704,39.7782 C186.1564,39.9622 186.6184,39.9622 187.1714,39.9622 C187.6344,40.0552 188.1884,40.0552 188.7434,40.0552 C189.1124,40.0552 192.9924,39.6852 200.2924,38.8542 C200.9394,37.6532 201.5854,36.4522 202.2324,35.2502 C203.4334,32.9402 204.4504,31.0922 205.1894,29.7062 C202.1394,30.0772 198.9064,30.5382 195.5804,31.0922 L194.2874,31.5542 L192.4384,34.7882 C192.0694,35.6202 191.6994,36.2662 191.3304,36.7292 C190.6824,37.7452 189.8514,38.2062 188.7434,38.2062 C187.8194,38.2062 186.8024,37.5602 185.6944,36.0812 C184.5864,34.6962 184.1234,33.5872 184.1234,32.7552 C184.1234,32.5712 184.2154,32.3862 184.5864,32.0172 C184.9554,31.7392 185.4174,31.2782 186.1564,30.5382 C186.7104,29.9842 187.7264,28.6912 189.1124,26.7502 C190.4994,24.9022 191.8844,23.0542 193.1774,21.2062 C194.4704,19.3592 195.3954,18.1582 195.9494,17.6032 C196.5034,16.4952 197.5204,15.9402 198.8134,15.9402 C199.9224,15.9402 200.7534,16.3092 201.3084,16.9562 C201.7704,17.5112 202.0474,18.1582 202.2324,18.8972 C202.2324,19.0812 201.8624,19.6352 201.2154,20.4672 Z" id="Stroke-10" stroke="#CEDAEA" stroke-width="2" mask="url(#mask-2)"></path>
            <path d="M353.1122,96.5074 C352.4662,97.4314 351.1732,97.9864 349.3242,98.1704 C348.9542,98.1704 348.6762,97.8944 348.5852,97.4314 C348.2162,96.4154 347.1062,94.9374 345.2592,92.9034 C343.5952,90.8714 341.9322,89.3014 340.2692,88.2844 C338.6062,87.1754 337.3122,86.4364 336.5732,86.1594 C335.7422,85.7894 335.0952,85.6054 334.7262,85.5124 C334.4482,85.2354 334.3562,84.8654 334.3562,84.3114 C334.3562,83.3874 334.6332,82.5554 335.2802,81.6324 C335.9262,80.8004 336.8502,80.3394 337.9602,80.3394 C339.4382,80.3394 341.2852,81.0774 343.3182,82.3714 C345.7202,83.6644 348.2162,85.6964 350.8022,88.2844 C353.1122,90.8714 354.3132,92.7194 354.3132,93.8274 C354.3132,94.6584 353.8522,95.5834 353.1122,96.5074 M337.5912,42.7344 C337.5912,43.1044 337.6822,43.3814 337.7742,43.5664 C337.9602,44.3054 338.1442,44.8594 338.1442,45.3214 C338.1442,46.2444 337.7742,46.8924 337.2202,47.4464 C336.5732,48.1854 336.0192,48.4624 335.4662,48.4624 C333.8942,48.4624 332.6932,48.0004 331.8612,47.2614 C330.9372,46.5224 330.3832,45.2294 330.1992,43.3814 C327.1492,43.7504 324.5632,44.1204 322.3442,44.4894 C321.6062,44.7674 320.8662,44.9514 320.3122,45.0434 C319.7582,45.2294 319.2042,45.3214 318.6502,45.3214 C317.8172,45.3214 317.0792,44.7674 316.4312,43.5664 C315.6932,42.4574 315.4162,41.6254 315.4162,40.8864 C315.4162,40.5174 315.6002,40.2394 316.0622,40.1474 C320.1282,39.5924 324.0082,39.1304 327.5192,38.7614 L329.9212,38.5764 C329.9212,37.0984 329.8292,35.7124 329.8292,34.3264 C327.7042,34.6044 325.6722,34.8804 323.8232,35.2504 C321.8832,35.7124 320.7742,35.8974 320.5902,35.8974 C319.8512,35.8974 319.2042,35.4354 318.6502,34.5114 C318.0942,33.6794 317.9102,32.9404 317.9102,32.3864 C317.9102,32.0174 317.9102,31.6474 318.0942,31.4624 C318.3732,31.2784 318.8342,31.1854 319.3872,31.1854 C320.1282,31.1854 321.1432,31.1854 322.4372,31.0924 C322.8072,31.0924 325.2092,30.8164 329.4592,30.3534 L329.8292,30.3534 C329.8292,28.9674 329.7362,27.5814 329.7362,26.2874 C327.3352,26.4734 324.9322,26.7504 322.7152,27.0274 C320.6822,27.3974 319.4812,27.5814 319.2042,27.5814 C318.3732,27.5814 317.6332,27.1194 316.9862,26.1034 C316.2472,24.9944 315.8772,24.0704 315.8772,23.4244 C315.8772,22.9614 315.9702,22.5924 316.3402,22.4074 C316.7092,22.2234 317.1722,22.0384 317.8172,22.0384 C318.5562,22.0384 319.6652,22.0384 321.1432,21.9454 C321.5132,21.9454 324.1002,21.6684 328.9052,21.2994 C329.0902,21.2994 329.3672,21.2994 329.6442,21.2064 L329.6442,20.7444 C329.6442,20.1904 329.5512,19.1734 329.3672,17.6944 C329.3672,16.4024 330.3832,15.7554 332.5082,15.6624 C333.5252,15.6624 334.7262,16.0324 336.2042,16.7724 C337.4052,17.5114 338.0512,18.2494 338.0512,19.0814 C338.0512,19.4504 337.8682,20.0054 337.6822,20.5604 C340.2692,20.4674 343.0412,20.2824 345.9052,20.0984 C346.8302,20.0984 347.4752,20.0054 347.7532,19.8204 C347.9382,19.8204 348.2162,19.7284 348.5852,19.7284 C349.3242,19.7284 350.4322,20.0984 351.9112,20.8374 C353.2052,21.7614 353.8522,22.6854 353.9442,23.6094 C353.8522,24.8104 352.2812,25.4564 349.2312,25.4564 C347.0142,25.4564 345.4432,25.3644 344.5192,25.3644 C342.4872,25.3644 339.9922,25.4564 336.8502,25.6414 L336.8502,29.6134 C339.3452,29.4294 342.0252,29.2444 344.8892,28.9674 C345.6292,28.9674 346.1822,28.8754 346.3672,28.6914 C346.5522,28.6914 346.7372,28.5984 347.1062,28.5984 C347.7532,28.5984 348.6762,28.9674 349.8782,29.5224 C350.9872,30.2614 351.6332,31.0924 351.6332,31.8314 C351.6332,32.8484 350.2482,33.4034 347.6612,33.4034 C345.8132,33.4034 344.4262,33.3104 343.6882,33.3104 C341.9322,33.3104 339.7152,33.4944 336.9432,33.6794 C336.9432,35.3434 337.0362,36.8204 337.1282,37.9304 L337.3122,37.9304 C342.3942,37.6534 345.6292,37.4684 347.0142,37.2834 L350.8022,36.7294 C351.4492,36.7294 352.5572,37.1914 354.0362,38.0224 C355.6072,39.1304 356.4382,39.9624 356.4382,40.6094 C356.4382,42.0874 355.6992,42.8264 354.3132,42.8264 C353.3882,42.8264 352.5572,42.7344 351.6332,42.5494 C350.7102,42.3644 349.7862,42.2724 348.9542,42.2724 C346.5522,42.2724 342.7632,42.4574 337.5912,42.7344 M326.6872,86.0674 C326.5032,86.8984 325.9482,87.6374 325.2092,88.1924 C324.4692,88.5624 323.5462,88.7454 322.3442,88.7454 C322.0672,88.7454 321.7912,88.5624 321.6062,88.1924 C321.4222,87.9144 321.0512,87.6374 320.6822,87.4534 C318.8342,85.6964 317.3552,84.4964 316.1542,83.7564 C314.8612,83.0184 314.2152,82.5554 314.1222,82.3714 C313.9372,82.1864 313.9372,81.9094 313.9372,81.6324 C313.9372,80.8934 314.3062,79.9694 315.0462,78.8614 C315.8772,77.6594 316.7092,77.0124 317.6332,77.0124 C318.0032,77.0124 318.6502,77.3824 319.3872,78.1204 C319.5732,78.3984 320.1282,78.7684 321.0512,79.3214 C321.7912,79.8754 323.3622,80.8934 325.5782,82.5554 L326.5032,83.2954 C326.8732,83.4804 327.0562,83.6644 327.0562,83.7564 C327.0562,84.6814 326.8732,85.4204 326.6872,86.0674 M331.8612,91.9804 L332.7862,91.5184 C333.4322,91.5184 334.1712,91.5184 335.0952,91.7024 C335.7422,91.7024 336.3892,92.1654 337.0362,92.9964 C337.5912,93.7364 337.9602,94.5674 337.9602,95.5834 C337.9602,96.5074 337.1282,97.3384 335.5572,98.0784 C329.0902,100.6654 321.7912,102.0504 313.5682,102.0504 C308.9482,102.0504 305.4372,101.2194 303.0352,99.6494 C300.6332,97.9864 299.4312,95.3994 299.4312,91.8884 C299.4312,89.3014 299.8002,86.5284 300.7252,83.3874 C300.9102,82.4634 301.0022,81.7244 301.0022,81.3544 C301.0942,80.4314 302.0182,79.9694 303.6812,79.8754 C304.9752,79.9694 306.2682,80.3394 307.6542,80.8934 C308.9482,81.5404 309.6872,82.3714 309.6872,83.2954 C309.6872,83.6644 309.5032,84.1264 309.3172,84.4964 C308.8562,84.9574 308.4862,85.4204 308.3012,85.9754 C307.3782,88.3764 307.0082,90.7784 307.0082,93.0884 C307.0082,94.0134 307.4692,94.7514 308.4862,95.2144 C309.4102,95.4904 311.1652,95.6764 313.7522,95.6764 C319.4812,95.6764 325.4862,94.3824 331.8612,91.9804 M342.3022,49.4794 C343.5042,49.8494 344.6122,50.5884 345.5362,51.6954 C346.4612,52.8054 347.0142,54.2834 347.0142,56.3164 C347.0142,60.0124 346.7372,63.3384 346.3672,66.3874 C345.9982,68.7894 345.7202,70.5454 345.4432,71.8384 C345.8132,72.3004 345.9982,72.6704 345.9982,72.9474 C345.9982,74.5184 345.2592,75.3494 343.7812,75.3494 C342.8562,75.3494 341.8402,75.2574 340.9162,75.0714 C339.9002,74.8874 338.9762,74.7024 338.0512,74.7024 C333.9872,74.7024 327.1492,74.9804 317.6332,75.4414 C308.0242,75.9034 300.1702,76.5504 293.9802,77.4744 C292.5942,77.7514 291.4852,78.0284 290.5622,78.2134 C289.6372,78.3984 288.7142,78.4904 287.7902,78.4904 C286.9592,78.4904 286.2192,77.9364 285.4802,76.6424 C284.7412,75.5334 284.3722,74.6104 284.3722,73.7784 C284.3722,73.4084 284.5552,73.1314 285.1102,73.0394 C291.8552,72.3004 298.1372,71.7464 303.8672,71.3764 C309.5032,71.0064 314.9532,70.6374 320.1282,70.2684 C328.5352,69.8984 333.8012,69.5284 336.0192,69.3444 C336.2042,69.3444 336.5732,69.3444 336.9432,69.2504 C336.9432,69.1584 337.0362,69.0674 337.0362,68.9744 C337.2202,68.7894 337.4982,68.4194 337.8682,67.9574 C338.2372,67.1264 338.6062,65.7394 338.9762,63.8934 C337.6822,63.8934 336.6672,63.8004 336.0192,63.8004 C331.2152,63.8004 324.5632,64.1694 315.9702,64.7244 C307.3782,65.3704 299.5242,66.1104 292.4092,66.9414 C289.5452,67.4034 287.9742,67.5884 287.6052,67.5884 C286.7732,67.5884 286.0342,67.1264 285.3872,66.0184 C284.6492,65.0934 284.3722,64.2624 284.3722,63.6144 C284.3722,63.0614 284.4642,62.5994 284.8332,62.3214 C285.1102,62.1374 285.5722,61.9524 286.3112,61.9524 C287.6052,62.0444 289.0842,62.0444 290.6542,62.0444 C291.4852,62.0444 296.2902,61.6754 305.1602,60.9364 C313.9372,60.2884 324.6552,59.5494 337.4052,58.8114 C338.3292,58.7184 338.9762,58.6264 339.1612,58.5334 C339.2532,58.5334 339.4382,58.4414 339.6232,58.3484 C339.6232,57.7944 339.7152,57.1484 339.7152,56.5934 C339.7152,55.0234 338.5132,54.1914 336.2042,54.1914 C325.8562,54.2834 316.6162,54.7454 308.3012,55.5764 C299.9862,56.5014 294.5342,57.1484 292.1332,57.7014 C289.5452,58.2564 288.0662,58.4414 287.6972,58.4414 C286.2192,58.4414 285.1102,56.8704 284.5552,53.8214 L284.8332,53.0824 C304.2362,50.4954 322.1612,49.1104 338.4222,49.0174 C339.8072,49.0174 341.1012,49.2014 342.3022,49.4794 M301.4652,44.3974 C301.4652,44.6744 301.5562,44.8594 301.6482,44.9514 C301.8342,45.5984 302.0182,46.1534 302.0182,46.7074 C302.0182,47.6314 301.6482,48.4624 301.0022,49.0174 C300.2632,49.6634 299.6162,49.9414 299.0612,49.9414 C297.4912,49.9414 296.2902,49.4794 295.4582,48.7394 C294.5342,48.0004 293.9802,46.7994 293.7032,45.0434 C289.8222,45.4134 286.5892,45.9684 284.0022,46.5224 L282.2462,47.1694 C281.6922,47.3544 281.2292,47.4464 280.7682,47.4464 C279.8432,47.4464 279.1042,46.8924 278.5502,45.6914 C277.8112,44.6744 277.5342,43.7504 277.5342,43.0114 C277.5342,42.6424 277.7182,42.3644 278.1802,42.2724 C281.6922,41.7184 285.0182,41.1634 288.1602,40.7944 C290.0072,40.6094 291.7632,40.4244 293.4252,40.2394 C293.4252,38.7614 293.3342,37.3754 293.3342,35.9894 C290.9312,36.3594 288.6212,36.6364 286.4962,37.0054 C284.6492,37.3754 283.5402,37.5604 283.3542,37.5604 C282.6152,37.5604 282.0612,37.0984 281.5082,36.1744 C280.9522,35.2504 280.6752,34.5114 280.6752,33.9564 C280.6752,33.5874 280.7682,33.3104 280.9522,33.1254 C281.2292,32.9404 281.6922,32.8484 282.2462,32.8484 C282.9852,32.8484 283.9092,32.8484 285.1102,32.7554 C285.4802,32.7554 287.7902,32.4784 291.8552,32.1094 L293.3342,31.9244 L293.3342,27.6744 C290.3772,27.9514 287.6972,28.3204 285.1102,28.6914 C283.1712,29.0604 282.0612,29.2444 281.8772,29.2444 C280.9522,29.2444 280.2142,28.7824 279.5672,27.6744 C278.8282,26.5654 278.5502,25.7344 278.5502,25.0864 C278.5502,24.6254 278.6422,24.2554 279.0122,23.9794 C279.2902,23.7934 279.7512,23.6094 280.3982,23.6094 C281.1372,23.6094 282.2462,23.6094 283.5402,23.5164 C283.9092,23.5164 286.4042,23.2394 290.8392,22.8694 L293.2422,22.6854 L293.2422,21.2064 C293.2422,20.6524 293.0552,19.5434 292.7782,18.0654 C292.7782,16.7724 293.8872,16.0324 296.1052,15.9404 C297.2142,15.9404 298.4152,16.4024 299.8932,17.1414 C301.1872,17.8804 301.9252,18.6194 301.9252,19.5434 C301.9252,20.0984 301.6482,21.0224 301.2792,22.1304 L306.6382,21.7614 C307.5612,21.7614 308.2092,21.6684 308.4862,21.4844 C308.6712,21.4844 308.9482,21.3914 309.3172,21.3914 C310.0572,21.3914 311.1652,21.7614 312.6432,22.4074 C313.9372,23.3314 314.5842,24.3474 314.6752,25.2724 C314.5842,26.3804 313.0132,27.0274 310.0572,27.0274 C307.8392,27.0274 306.1762,26.9354 305.2522,26.9354 C303.9592,26.9354 302.3882,27.0274 300.6332,27.1194 L300.6332,31.2784 C302.4802,31.1854 304.5122,31.0004 306.6382,30.8164 C307.4692,30.8164 308.0242,30.7234 308.2092,30.5384 C308.3932,30.5384 308.5792,30.4454 308.9482,30.4454 C309.5942,30.4454 310.5182,30.8164 311.7192,31.3694 C312.8292,32.2014 313.4742,33.0324 313.4742,33.7724 C313.4742,34.6954 312.0902,35.2504 309.5032,35.2504 C307.6542,35.2504 306.2682,35.1574 305.5292,35.1574 C304.2362,35.1574 302.5722,35.2504 300.7252,35.3434 C300.7252,37.0054 300.8172,38.3914 300.9102,39.5004 C303.0352,39.3164 304.5122,39.1304 305.2522,39.0384 L309.0402,38.4844 C309.6872,38.4844 310.7962,38.9454 312.2732,39.8694 C313.7522,40.9794 314.5842,41.8104 314.5842,42.3644 C314.5842,43.8434 313.8442,44.6744 312.5512,44.6744 C311.6282,44.6744 310.7962,44.5824 309.8722,44.3974 C308.9482,44.2124 308.0242,44.1204 307.1922,44.1204 C305.8062,44.1204 303.8672,44.2124 301.4652,44.3974 M277.0722,91.9804 C277.2582,91.6104 277.9032,90.6874 279.0122,89.2084 C279.4732,88.6534 280.2142,87.9144 281.3222,86.9904 C282.2462,86.0674 283.5402,84.8654 285.2032,83.5724 C286.5892,82.3714 287.6972,81.5404 288.4362,81.1704 C289.0842,80.8004 289.7302,80.5234 290.2852,80.5234 C292.6862,80.7084 293.9802,81.7244 293.9802,83.3874 C293.9802,84.9574 293.5182,86.1594 292.5942,86.9904 C292.3172,87.0834 291.7632,87.4534 290.9312,88.0994 C290.0072,88.8384 288.8062,90.2244 287.1422,92.4434 C285.7572,94.1054 284.7412,95.4904 284.0932,96.6004 L283.6322,97.2464 C282.8932,98.0784 281.8772,98.5394 280.4912,98.5394 C279.5672,98.5394 278.7352,97.8944 277.9962,96.7844 C277.1652,95.6764 276.7952,94.4754 276.7952,93.0884 C276.7952,92.7194 276.8872,92.3494 277.0722,91.9804" id="Fill-11" fill="#CEDAEA" mask="url(#mask-2)"></path>
            <path d="M353.1122,96.5074 C352.4662,97.4314 351.1732,97.9864 349.3242,98.1704 C348.9542,98.1704 348.6762,97.8944 348.5852,97.4314 C348.2162,96.4154 347.1062,94.9374 345.2592,92.9034 C343.5952,90.8714 341.9322,89.3014 340.2692,88.2844 C338.6062,87.1754 337.3122,86.4364 336.5732,86.1594 C335.7422,85.7894 335.0952,85.6054 334.7262,85.5124 C334.4482,85.2354 334.3562,84.8654 334.3562,84.3114 C334.3562,83.3874 334.6332,82.5554 335.2802,81.6324 C335.9262,80.8004 336.8502,80.3394 337.9602,80.3394 C339.4382,80.3394 341.2852,81.0774 343.3182,82.3714 C345.7202,83.6644 348.2162,85.6964 350.8022,88.2844 C353.1122,90.8714 354.3132,92.7194 354.3132,93.8274 C354.3132,94.6584 353.8522,95.5834 353.1122,96.5074 Z M337.5912,42.7344 C337.5912,43.1044 337.6822,43.3814 337.7742,43.5664 C337.9602,44.3054 338.1442,44.8594 338.1442,45.3214 C338.1442,46.2444 337.7742,46.8924 337.2202,47.4464 C336.5732,48.1854 336.0192,48.4624 335.4662,48.4624 C333.8942,48.4624 332.6932,48.0004 331.8612,47.2614 C330.9372,46.5224 330.3832,45.2294 330.1992,43.3814 C327.1492,43.7504 324.5632,44.1204 322.3442,44.4894 C321.6062,44.7674 320.8662,44.9514 320.3122,45.0434 C319.7582,45.2294 319.2042,45.3214 318.6502,45.3214 C317.8172,45.3214 317.0792,44.7674 316.4312,43.5664 C315.6932,42.4574 315.4162,41.6254 315.4162,40.8864 C315.4162,40.5174 315.6002,40.2394 316.0622,40.1474 C320.1282,39.5924 324.0082,39.1304 327.5192,38.7614 L329.9212,38.5764 C329.9212,37.0984 329.8292,35.7124 329.8292,34.3264 C327.7042,34.6044 325.6722,34.8804 323.8232,35.2504 C321.8832,35.7124 320.7742,35.8974 320.5902,35.8974 C319.8512,35.8974 319.2042,35.4354 318.6502,34.5114 C318.0942,33.6794 317.9102,32.9404 317.9102,32.3864 C317.9102,32.0174 317.9102,31.6474 318.0942,31.4624 C318.3732,31.2784 318.8342,31.1854 319.3872,31.1854 C320.1282,31.1854 321.1432,31.1854 322.4372,31.0924 C322.8072,31.0924 325.2092,30.8164 329.4592,30.3534 L329.8292,30.3534 C329.8292,28.9674 329.7362,27.5814 329.7362,26.2874 C327.3352,26.4734 324.9322,26.7504 322.7152,27.0274 C320.6822,27.3974 319.4812,27.5814 319.2042,27.5814 C318.3732,27.5814 317.6332,27.1194 316.9862,26.1034 C316.2472,24.9944 315.8772,24.0704 315.8772,23.4244 C315.8772,22.9614 315.9702,22.5924 316.3402,22.4074 C316.7092,22.2234 317.1722,22.0384 317.8172,22.0384 C318.5562,22.0384 319.6652,22.0384 321.1432,21.9454 C321.5132,21.9454 324.1002,21.6684 328.9052,21.2994 C329.0902,21.2994 329.3672,21.2994 329.6442,21.2064 L329.6442,20.7444 C329.6442,20.1904 329.5512,19.1734 329.3672,17.6944 C329.3672,16.4024 330.3832,15.7554 332.5082,15.6624 C333.5252,15.6624 334.7262,16.0324 336.2042,16.7724 C337.4052,17.5114 338.0512,18.2494 338.0512,19.0814 C338.0512,19.4504 337.8682,20.0054 337.6822,20.5604 C340.2692,20.4674 343.0412,20.2824 345.9052,20.0984 C346.8302,20.0984 347.4752,20.0054 347.7532,19.8204 C347.9382,19.8204 348.2162,19.7284 348.5852,19.7284 C349.3242,19.7284 350.4322,20.0984 351.9112,20.8374 C353.2052,21.7614 353.8522,22.6854 353.9442,23.6094 C353.8522,24.8104 352.2812,25.4564 349.2312,25.4564 C347.0142,25.4564 345.4432,25.3644 344.5192,25.3644 C342.4872,25.3644 339.9922,25.4564 336.8502,25.6414 L336.8502,29.6134 C339.3452,29.4294 342.0252,29.2444 344.8892,28.9674 C345.6292,28.9674 346.1822,28.8754 346.3672,28.6914 C346.5522,28.6914 346.7372,28.5984 347.1062,28.5984 C347.7532,28.5984 348.6762,28.9674 349.8782,29.5224 C350.9872,30.2614 351.6332,31.0924 351.6332,31.8314 C351.6332,32.8484 350.2482,33.4034 347.6612,33.4034 C345.8132,33.4034 344.4262,33.3104 343.6882,33.3104 C341.9322,33.3104 339.7152,33.4944 336.9432,33.6794 C336.9432,35.3434 337.0362,36.8204 337.1282,37.9304 L337.3122,37.9304 C342.3942,37.6534 345.6292,37.4684 347.0142,37.2834 L350.8022,36.7294 C351.4492,36.7294 352.5572,37.1914 354.0362,38.0224 C355.6072,39.1304 356.4382,39.9624 356.4382,40.6094 C356.4382,42.0874 355.6992,42.8264 354.3132,42.8264 C353.3882,42.8264 352.5572,42.7344 351.6332,42.5494 C350.7102,42.3644 349.7862,42.2724 348.9542,42.2724 C346.5522,42.2724 342.7632,42.4574 337.5912,42.7344 Z M326.6872,86.0674 C326.5032,86.8984 325.9482,87.6374 325.2092,88.1924 C324.4692,88.5624 323.5462,88.7454 322.3442,88.7454 C322.0672,88.7454 321.7912,88.5624 321.6062,88.1924 C321.4222,87.9144 321.0512,87.6374 320.6822,87.4534 C318.8342,85.6964 317.3552,84.4964 316.1542,83.7564 C314.8612,83.0184 314.2152,82.5554 314.1222,82.3714 C313.9372,82.1864 313.9372,81.9094 313.9372,81.6324 C313.9372,80.8934 314.3062,79.9694 315.0462,78.8614 C315.8772,77.6594 316.7092,77.0124 317.6332,77.0124 C318.0032,77.0124 318.6502,77.3824 319.3872,78.1204 C319.5732,78.3984 320.1282,78.7684 321.0512,79.3214 C321.7912,79.8754 323.3622,80.8934 325.5782,82.5554 L326.5032,83.2954 C326.8732,83.4804 327.0562,83.6644 327.0562,83.7564 C327.0562,84.6814 326.8732,85.4204 326.6872,86.0674 Z M331.8612,91.9804 L332.7862,91.5184 C333.4322,91.5184 334.1712,91.5184 335.0952,91.7024 C335.7422,91.7024 336.3892,92.1654 337.0362,92.9964 C337.5912,93.7364 337.9602,94.5674 337.9602,95.5834 C337.9602,96.5074 337.1282,97.3384 335.5572,98.0784 C329.0902,100.6654 321.7912,102.0504 313.5682,102.0504 C308.9482,102.0504 305.4372,101.2194 303.0352,99.6494 C300.6332,97.9864 299.4312,95.3994 299.4312,91.8884 C299.4312,89.3014 299.8002,86.5284 300.7252,83.3874 C300.9102,82.4634 301.0022,81.7244 301.0022,81.3544 C301.0942,80.4314 302.0182,79.9694 303.6812,79.8754 C304.9752,79.9694 306.2682,80.3394 307.6542,80.8934 C308.9482,81.5404 309.6872,82.3714 309.6872,83.2954 C309.6872,83.6644 309.5032,84.1264 309.3172,84.4964 C308.8562,84.9574 308.4862,85.4204 308.3012,85.9754 C307.3782,88.3764 307.0082,90.7784 307.0082,93.0884 C307.0082,94.0134 307.4692,94.7514 308.4862,95.2144 C309.4102,95.4904 311.1652,95.6764 313.7522,95.6764 C319.4812,95.6764 325.4862,94.3824 331.8612,91.9804 Z M342.3022,49.4794 C343.5042,49.8494 344.6122,50.5884 345.5362,51.6954 C346.4612,52.8054 347.0142,54.2834 347.0142,56.3164 C347.0142,60.0124 346.7372,63.3384 346.3672,66.3874 C345.9982,68.7894 345.7202,70.5454 345.4432,71.8384 C345.8132,72.3004 345.9982,72.6704 345.9982,72.9474 C345.9982,74.5184 345.2592,75.3494 343.7812,75.3494 C342.8562,75.3494 341.8402,75.2574 340.9162,75.0714 C339.9002,74.8874 338.9762,74.7024 338.0512,74.7024 C333.9872,74.7024 327.1492,74.9804 317.6332,75.4414 C308.0242,75.9034 300.1702,76.5504 293.9802,77.4744 C292.5942,77.7514 291.4852,78.0284 290.5622,78.2134 C289.6372,78.3984 288.7142,78.4904 287.7902,78.4904 C286.9592,78.4904 286.2192,77.9364 285.4802,76.6424 C284.7412,75.5334 284.3722,74.6104 284.3722,73.7784 C284.3722,73.4084 284.5552,73.1314 285.1102,73.0394 C291.8552,72.3004 298.1372,71.7464 303.8672,71.3764 C309.5032,71.0064 314.9532,70.6374 320.1282,70.2684 C328.5352,69.8984 333.8012,69.5284 336.0192,69.3444 C336.2042,69.3444 336.5732,69.3444 336.9432,69.2504 C336.9432,69.1584 337.0362,69.0674 337.0362,68.9744 C337.2202,68.7894 337.4982,68.4194 337.8682,67.9574 C338.2372,67.1264 338.6062,65.7394 338.9762,63.8934 C337.6822,63.8934 336.6672,63.8004 336.0192,63.8004 C331.2152,63.8004 324.5632,64.1694 315.9702,64.7244 C307.3782,65.3704 299.5242,66.1104 292.4092,66.9414 C289.5452,67.4034 287.9742,67.5884 287.6052,67.5884 C286.7732,67.5884 286.0342,67.1264 285.3872,66.0184 C284.6492,65.0934 284.3722,64.2624 284.3722,63.6144 C284.3722,63.0614 284.4642,62.5994 284.8332,62.3214 C285.1102,62.1374 285.5722,61.9524 286.3112,61.9524 C287.6052,62.0444 289.0842,62.0444 290.6542,62.0444 C291.4852,62.0444 296.2902,61.6754 305.1602,60.9364 C313.9372,60.2884 324.6552,59.5494 337.4052,58.8114 C338.3292,58.7184 338.9762,58.6264 339.1612,58.5334 C339.2532,58.5334 339.4382,58.4414 339.6232,58.3484 C339.6232,57.7944 339.7152,57.1484 339.7152,56.5934 C339.7152,55.0234 338.5132,54.1914 336.2042,54.1914 C325.8562,54.2834 316.6162,54.7454 308.3012,55.5764 C299.9862,56.5014 294.5342,57.1484 292.1332,57.7014 C289.5452,58.2564 288.0662,58.4414 287.6972,58.4414 C286.2192,58.4414 285.1102,56.8704 284.5552,53.8214 L284.8332,53.0824 C304.2362,50.4954 322.1612,49.1104 338.4222,49.0174 C339.8072,49.0174 341.1012,49.2014 342.3022,49.4794 Z M301.4652,44.3974 C301.4652,44.6744 301.5562,44.8594 301.6482,44.9514 C301.8342,45.5984 302.0182,46.1534 302.0182,46.7074 C302.0182,47.6314 301.6482,48.4624 301.0022,49.0174 C300.2632,49.6634 299.6162,49.9414 299.0612,49.9414 C297.4912,49.9414 296.2902,49.4794 295.4582,48.7394 C294.5342,48.0004 293.9802,46.7994 293.7032,45.0434 C289.8222,45.4134 286.5892,45.9684 284.0022,46.5224 L282.2462,47.1694 C281.6922,47.3544 281.2292,47.4464 280.7682,47.4464 C279.8432,47.4464 279.1042,46.8924 278.5502,45.6914 C277.8112,44.6744 277.5342,43.7504 277.5342,43.0114 C277.5342,42.6424 277.7182,42.3644 278.1802,42.2724 C281.6922,41.7184 285.0182,41.1634 288.1602,40.7944 C290.0072,40.6094 291.7632,40.4244 293.4252,40.2394 C293.4252,38.7614 293.3342,37.3754 293.3342,35.9894 C290.9312,36.3594 288.6212,36.6364 286.4962,37.0054 C284.6492,37.3754 283.5402,37.5604 283.3542,37.5604 C282.6152,37.5604 282.0612,37.0984 281.5082,36.1744 C280.9522,35.2504 280.6752,34.5114 280.6752,33.9564 C280.6752,33.5874 280.7682,33.3104 280.9522,33.1254 C281.2292,32.9404 281.6922,32.8484 282.2462,32.8484 C282.9852,32.8484 283.9092,32.8484 285.1102,32.7554 C285.4802,32.7554 287.7902,32.4784 291.8552,32.1094 L293.3342,31.9244 L293.3342,27.6744 C290.3772,27.9514 287.6972,28.3204 285.1102,28.6914 C283.1712,29.0604 282.0612,29.2444 281.8772,29.2444 C280.9522,29.2444 280.2142,28.7824 279.5672,27.6744 C278.8282,26.5654 278.5502,25.7344 278.5502,25.0864 C278.5502,24.6254 278.6422,24.2554 279.0122,23.9794 C279.2902,23.7934 279.7512,23.6094 280.3982,23.6094 C281.1372,23.6094 282.2462,23.6094 283.5402,23.5164 C283.9092,23.5164 286.4042,23.2394 290.8392,22.8694 L293.2422,22.6854 L293.2422,21.2064 C293.2422,20.6524 293.0552,19.5434 292.7782,18.0654 C292.7782,16.7724 293.8872,16.0324 296.1052,15.9404 C297.2142,15.9404 298.4152,16.4024 299.8932,17.1414 C301.1872,17.8804 301.9252,18.6194 301.9252,19.5434 C301.9252,20.0984 301.6482,21.0224 301.2792,22.1304 L306.6382,21.7614 C307.5612,21.7614 308.2092,21.6684 308.4862,21.4844 C308.6712,21.4844 308.9482,21.3914 309.3172,21.3914 C310.0572,21.3914 311.1652,21.7614 312.6432,22.4074 C313.9372,23.3314 314.5842,24.3474 314.6752,25.2724 C314.5842,26.3804 313.0132,27.0274 310.0572,27.0274 C307.8392,27.0274 306.1762,26.9354 305.2522,26.9354 C303.9592,26.9354 302.3882,27.0274 300.6332,27.1194 L300.6332,31.2784 C302.4802,31.1854 304.5122,31.0004 306.6382,30.8164 C307.4692,30.8164 308.0242,30.7234 308.2092,30.5384 C308.3932,30.5384 308.5792,30.4454 308.9482,30.4454 C309.5942,30.4454 310.5182,30.8164 311.7192,31.3694 C312.8292,32.2014 313.4742,33.0324 313.4742,33.7724 C313.4742,34.6954 312.0902,35.2504 309.5032,35.2504 C307.6542,35.2504 306.2682,35.1574 305.5292,35.1574 C304.2362,35.1574 302.5722,35.2504 300.7252,35.3434 C300.7252,37.0054 300.8172,38.3914 300.9102,39.5004 C303.0352,39.3164 304.5122,39.1304 305.2522,39.0384 L309.0402,38.4844 C309.6872,38.4844 310.7962,38.9454 312.2732,39.8694 C313.7522,40.9794 314.5842,41.8104 314.5842,42.3644 C314.5842,43.8434 313.8442,44.6744 312.5512,44.6744 C311.6282,44.6744 310.7962,44.5824 309.8722,44.3974 C308.9482,44.2124 308.0242,44.1204 307.1922,44.1204 C305.8062,44.1204 303.8672,44.2124 301.4652,44.3974 Z M277.0722,91.9804 C277.2582,91.6104 277.9032,90.6874 279.0122,89.2084 C279.4732,88.6534 280.2142,87.9144 281.3222,86.9904 C282.2462,86.0674 283.5402,84.8654 285.2032,83.5724 C286.5892,82.3714 287.6972,81.5404 288.4362,81.1704 C289.0842,80.8004 289.7302,80.5234 290.2852,80.5234 C292.6862,80.7084 293.9802,81.7244 293.9802,83.3874 C293.9802,84.9574 293.5182,86.1594 292.5942,86.9904 C292.3172,87.0834 291.7632,87.4534 290.9312,88.0994 C290.0072,88.8384 288.8062,90.2244 287.1422,92.4434 C285.7572,94.1054 284.7412,95.4904 284.0932,96.6004 L283.6322,97.2464 C282.8932,98.0784 281.8772,98.5394 280.4912,98.5394 C279.5672,98.5394 278.7352,97.8944 277.9962,96.7844 C277.1652,95.6764 276.7952,94.4754 276.7952,93.0884 C276.7952,92.7194 276.8872,92.3494 277.0722,91.9804 Z" id="Stroke-12" stroke="#CEDAEA" stroke-width="2" mask="url(#mask-2)"></path>
            <path d="M447.3554,54.4684 C446.8004,55.6694 446.1534,56.5014 445.3224,56.9624 C444.5834,57.3324 443.7514,57.4254 442.6434,57.4254 C442.2734,57.4254 441.9044,57.0554 441.3484,56.3164 C440.9794,55.5764 440.0554,54.1914 438.4854,52.1584 C436.9144,50.1254 435.0664,47.9084 432.9414,45.5064 C432.2024,44.9514 431.6474,44.3974 431.0934,43.8434 C430.4464,43.3814 429.9844,42.9184 429.8004,42.3644 C429.1534,41.8104 428.8764,41.1634 428.8764,40.4244 C428.8764,39.6854 429.2454,38.7614 429.9844,37.6534 C430.8164,36.5444 431.6474,35.8974 432.5724,35.8974 C433.0344,35.8974 433.5874,36.2664 434.3274,36.9134 C434.7894,37.4684 435.8054,38.3914 437.2844,39.6854 C438.7624,41.0714 440.5174,43.0114 442.7354,45.4134 C444.8604,47.7234 446.0614,49.0174 446.4304,49.3864 C446.8004,49.5714 447.0784,49.8494 447.3554,50.0334 C447.7244,50.2184 447.9094,50.4954 447.9094,50.6804 C447.9094,52.2504 447.7244,53.5444 447.3554,54.4684 M436.1754,60.7514 C435.5284,62.0444 433.9574,65.6484 431.3714,71.4694 C430.2624,74.0564 429.0614,76.4584 427.7674,78.6754 C430.5404,82.3714 433.3114,85.5124 435.8974,88.0074 C439.6864,91.8884 442.5494,94.1054 444.4904,94.8454 C445.0454,94.8454 445.5064,94.9374 445.8764,94.9374 C446.1534,94.9374 446.5234,94.9374 446.9854,95.0294 C448.6484,95.9534 449.4804,97.0614 449.5724,98.5394 C449.5724,99.6494 449.1104,100.4804 448.1864,101.0354 C447.3554,101.5894 446.2464,101.8664 444.9524,101.8664 C442.5494,101.6814 438.2084,98.8174 432.0174,93.1814 C428.9684,90.5024 426.1964,87.8224 423.7934,85.2354 C423.1484,86.2524 422.5014,87.2674 421.8534,88.1924 C417.9734,93.3664 414.9244,96.9694 412.7074,98.9094 C410.4894,100.7584 408.5484,101.7734 406.7934,101.7734 C404.8534,101.7734 403.0054,99.6494 401.1574,95.3994 C401.7124,95.2144 402.2664,94.9374 402.9134,94.6584 C403.6534,94.2894 405.2234,93.1814 407.5334,91.5184 C409.7504,89.6704 412.6154,86.4364 416.3104,81.8174 C417.0494,80.8934 417.6964,79.9694 418.3424,79.0444 L416.2174,76.3654 C412.1534,70.7294 409.8434,66.8494 409.2884,64.7244 C408.8264,64.0774 408.6424,63.3384 408.6424,62.5064 C408.6424,61.5824 408.9184,60.9364 409.6584,60.3814 C410.3974,59.8264 411.3214,59.4574 412.5224,59.4574 C413.1684,59.4574 413.8164,59.5494 414.4614,59.6424 L416.1264,60.3814 C416.6794,62.7834 418.8974,66.5724 422.6854,71.8384 C423.6094,70.1754 424.4414,68.5124 425.1804,66.7564 C427.3054,61.5824 428.4144,57.7944 428.4144,55.2074 C428.4144,54.0994 428.9684,53.5444 430.2624,53.5444 C431.9244,53.5444 433.4034,54.0064 434.7894,54.8374 C436.2674,55.7624 437.0064,56.6864 437.0064,57.6104 C437.0064,58.3484 436.7294,59.3654 436.1754,60.7514 M434.6044,24.7174 C435.5284,24.6254 437.3764,24.3474 440.1484,23.8864 C441.0724,23.8864 442.6434,24.6254 444.9524,25.9184 C447.2614,27.4894 448.4624,28.7824 448.4624,29.7064 C448.4624,31.7394 447.3554,32.8484 445.3224,32.9404 C444.1214,32.9404 442.8274,32.8484 441.3484,32.4784 C440.0554,32.2934 438.7624,32.1094 437.5614,32.1094 C434.7894,32.1094 430.1694,32.3864 423.6094,32.9404 C417.1414,33.5874 411.7834,34.4184 407.5334,35.5284 C406.6094,35.8974 405.7774,36.1744 405.1314,36.3594 C404.4844,36.6364 403.8364,36.7294 403.2834,36.7294 C402.0824,36.7294 401.0654,35.8974 400.1414,34.2344 C399.1254,32.6634 398.6634,31.3694 398.6634,30.2614 C398.6634,29.7064 398.9404,29.4294 399.4954,29.3374 C404.1144,28.4134 408.4574,27.6744 412.5224,27.1194 L418.6204,26.3804 C418.0664,25.6414 417.5114,25.0864 417.0494,24.7174 C416.3104,24.2554 415.7564,23.8864 415.2944,23.5164 C414.1854,22.9614 413.7234,22.2234 413.7234,21.2994 C413.7234,20.0054 414.0934,18.8974 414.9244,17.7874 C415.6644,16.6794 416.8654,16.1244 418.4364,16.1244 C419.7294,16.3094 421.3924,17.7874 423.2404,20.3744 C424.8104,22.7774 425.7344,24.5324 426.0114,25.6414 C430.4464,25.2724 433.3114,24.9024 434.6044,24.7174 M415.6644,43.8434 C412.1534,47.5384 409.1044,51.9744 406.5164,57.0554 C405.5924,58.7184 405.0384,60.1974 404.8534,61.4894 C400.5114,60.9364 398.3854,59.0874 398.3854,55.9474 C398.3854,55.2074 399.1254,53.9134 400.4184,51.8814 C403.9304,46.9844 406.8864,43.2884 409.1964,40.7944 L411.4144,38.3914 C412.2454,37.5604 412.9844,37.0984 413.6304,37.0984 C415.0174,37.0984 416.0334,37.5604 416.7724,38.2994 C417.5114,39.1304 417.9734,39.9624 417.9734,40.7944 C417.9734,41.6254 417.6044,42.2724 417.0494,42.6424 C416.5874,42.9184 416.1264,43.2884 415.6644,43.8434 M397.2784,41.8104 C397.0004,42.8264 396.3534,43.2884 395.4294,43.2884 C394.7834,43.2884 393.7664,43.2884 392.2884,43.1044 L387.8524,43.1044 L387.6684,55.2074 C388.4084,55.9474 389.3314,56.5934 390.2554,57.1484 C391.1794,57.8874 392.0104,58.5334 392.8424,58.9034 C393.5824,59.3654 394.2284,59.6424 394.9674,59.8264 C394.9674,59.8264 395.1524,59.9194 395.3374,59.9194 C395.4294,60.0124 395.5214,60.0124 395.6144,60.0124 C396.4454,60.3814 396.9084,61.0284 396.9084,61.9524 C396.9084,62.5064 396.7224,63.2454 396.5394,64.0774 C396.1684,65.0934 395.7994,65.8324 395.2444,66.2944 C394.6904,67.0334 393.8594,67.4044 392.7504,67.4044 C392.3804,67.4044 391.8274,67.1264 391.0864,66.3874 C390.1634,65.7394 389.0544,64.7244 387.7604,63.3384 L387.5764,63.1544 L387.4834,69.0674 C387.4834,77.1974 387.6684,84.4044 388.2224,90.7794 C388.3154,92.1654 388.5914,93.7364 389.0544,95.3994 C389.2394,95.9534 389.4234,96.5074 389.7014,97.1554 C389.8864,97.7084 390.0704,98.4474 390.0704,99.1874 C390.0704,100.0184 389.6084,100.6654 388.8704,101.2194 C388.1294,101.6814 387.2984,101.9584 386.5594,101.9584 C382.3094,101.9584 380.1844,99.6494 380.1844,95.2144 L380.1844,88.3764 C380.3694,83.3874 380.4614,77.3824 380.4614,70.5454 L380.4614,64.9084 L379.2594,68.6974 C377.7824,72.9474 376.7654,76.6424 376.1194,79.7834 L375.7504,81.3544 C374.8254,82.3714 373.6254,82.8324 371.9614,82.8324 C370.8524,82.8324 369.9294,82.1864 369.0044,80.8004 C368.0814,79.5994 367.7114,78.1204 367.7114,76.3654 C367.7114,76.0884 367.8034,75.7194 367.9894,75.1634 C368.1734,74.7944 369.0044,73.6864 370.2984,71.9304 C370.8524,70.4514 371.7764,68.4194 372.8854,65.8324 C373.9944,63.1544 375.3804,60.0124 377.2274,56.4084 C378.7064,53.6364 379.7224,51.6964 380.4614,50.4954 L380.4614,43.7504 C378.4284,44.1204 376.3964,44.5824 374.5474,45.2294 C373.8094,45.5984 373.2544,45.6914 373.0704,45.6914 C372.1464,45.6914 371.4074,45.0434 370.6674,43.7504 C369.9294,42.4574 369.5594,41.0714 369.5594,39.7784 C369.5594,38.9464 370.0214,38.3914 370.9454,38.1144 C373.9024,37.3754 377.0434,36.8214 380.2774,36.4514 L380.4614,36.4514 C380.4614,31.8314 380.3694,28.8754 380.1844,27.3974 C380.0924,26.0114 379.9074,24.7174 379.7224,23.4244 C379.4454,22.5004 379.3534,21.6684 379.3534,21.0224 C379.3534,20.0984 380.0924,18.9894 381.5704,17.8804 C383.0484,16.6794 384.2504,16.0324 385.1734,16.0324 C386.0054,16.0324 386.9294,16.3094 388.0384,16.8644 C389.0544,17.4184 389.6084,18.0654 389.6084,18.8044 C389.6084,19.2664 389.4234,20.1904 389.0544,21.5754 C388.5914,22.9614 388.3154,24.7174 388.2224,26.9354 C388.0384,29.1534 387.9464,32.0174 387.9464,35.6194 L387.9464,35.8974 L388.6854,35.8974 C389.7924,35.8974 391.5484,35.9894 393.8594,35.9894 C396.0764,36.0814 397.3704,36.8214 397.7404,38.1144 C397.7404,39.7784 397.5544,40.9794 397.2784,41.8104" id="Fill-13" fill="#CEDAEA" mask="url(#mask-2)"></path>
            <path d="M447.3554,54.4684 C446.8004,55.6694 446.1534,56.5014 445.3224,56.9624 C444.5834,57.3324 443.7514,57.4254 442.6434,57.4254 C442.2734,57.4254 441.9044,57.0554 441.3484,56.3164 C440.9794,55.5764 440.0554,54.1914 438.4854,52.1584 C436.9144,50.1254 435.0664,47.9084 432.9414,45.5064 C432.2024,44.9514 431.6474,44.3974 431.0934,43.8434 C430.4464,43.3814 429.9844,42.9184 429.8004,42.3644 C429.1534,41.8104 428.8764,41.1634 428.8764,40.4244 C428.8764,39.6854 429.2454,38.7614 429.9844,37.6534 C430.8164,36.5444 431.6474,35.8974 432.5724,35.8974 C433.0344,35.8974 433.5874,36.2664 434.3274,36.9134 C434.7894,37.4684 435.8054,38.3914 437.2844,39.6854 C438.7624,41.0714 440.5174,43.0114 442.7354,45.4134 C444.8604,47.7234 446.0614,49.0174 446.4304,49.3864 C446.8004,49.5714 447.0784,49.8494 447.3554,50.0334 C447.7244,50.2184 447.9094,50.4954 447.9094,50.6804 C447.9094,52.2504 447.7244,53.5444 447.3554,54.4684 Z M436.1754,60.7514 C435.5284,62.0444 433.9574,65.6484 431.3714,71.4694 C430.2624,74.0564 429.0614,76.4584 427.7674,78.6754 C430.5404,82.3714 433.3114,85.5124 435.8974,88.0074 C439.6864,91.8884 442.5494,94.1054 444.4904,94.8454 C445.0454,94.8454 445.5064,94.9374 445.8764,94.9374 C446.1534,94.9374 446.5234,94.9374 446.9854,95.0294 C448.6484,95.9534 449.4804,97.0614 449.5724,98.5394 C449.5724,99.6494 449.1104,100.4804 448.1864,101.0354 C447.3554,101.5894 446.2464,101.8664 444.9524,101.8664 C442.5494,101.6814 438.2084,98.8174 432.0174,93.1814 C428.9684,90.5024 426.1964,87.8224 423.7934,85.2354 C423.1484,86.2524 422.5014,87.2674 421.8534,88.1924 C417.9734,93.3664 414.9244,96.9694 412.7074,98.9094 C410.4894,100.7584 408.5484,101.7734 406.7934,101.7734 C404.8534,101.7734 403.0054,99.6494 401.1574,95.3994 C401.7124,95.2144 402.2664,94.9374 402.9134,94.6584 C403.6534,94.2894 405.2234,93.1814 407.5334,91.5184 C409.7504,89.6704 412.6154,86.4364 416.3104,81.8174 C417.0494,80.8934 417.6964,79.9694 418.3424,79.0444 L416.2174,76.3654 C412.1534,70.7294 409.8434,66.8494 409.2884,64.7244 C408.8264,64.0774 408.6424,63.3384 408.6424,62.5064 C408.6424,61.5824 408.9184,60.9364 409.6584,60.3814 C410.3974,59.8264 411.3214,59.4574 412.5224,59.4574 C413.1684,59.4574 413.8164,59.5494 414.4614,59.6424 L416.1264,60.3814 C416.6794,62.7834 418.8974,66.5724 422.6854,71.8384 C423.6094,70.1754 424.4414,68.5124 425.1804,66.7564 C427.3054,61.5824 428.4144,57.7944 428.4144,55.2074 C428.4144,54.0994 428.9684,53.5444 430.2624,53.5444 C431.9244,53.5444 433.4034,54.0064 434.7894,54.8374 C436.2674,55.7624 437.0064,56.6864 437.0064,57.6104 C437.0064,58.3484 436.7294,59.3654 436.1754,60.7514 Z M434.6044,24.7174 C435.5284,24.6254 437.3764,24.3474 440.1484,23.8864 C441.0724,23.8864 442.6434,24.6254 444.9524,25.9184 C447.2614,27.4894 448.4624,28.7824 448.4624,29.7064 C448.4624,31.7394 447.3554,32.8484 445.3224,32.9404 C444.1214,32.9404 442.8274,32.8484 441.3484,32.4784 C440.0554,32.2934 438.7624,32.1094 437.5614,32.1094 C434.7894,32.1094 430.1694,32.3864 423.6094,32.9404 C417.1414,33.5874 411.7834,34.4184 407.5334,35.5284 C406.6094,35.8974 405.7774,36.1744 405.1314,36.3594 C404.4844,36.6364 403.8364,36.7294 403.2834,36.7294 C402.0824,36.7294 401.0654,35.8974 400.1414,34.2344 C399.1254,32.6634 398.6634,31.3694 398.6634,30.2614 C398.6634,29.7064 398.9404,29.4294 399.4954,29.3374 C404.1144,28.4134 408.4574,27.6744 412.5224,27.1194 L418.6204,26.3804 C418.0664,25.6414 417.5114,25.0864 417.0494,24.7174 C416.3104,24.2554 415.7564,23.8864 415.2944,23.5164 C414.1854,22.9614 413.7234,22.2234 413.7234,21.2994 C413.7234,20.0054 414.0934,18.8974 414.9244,17.7874 C415.6644,16.6794 416.8654,16.1244 418.4364,16.1244 C419.7294,16.3094 421.3924,17.7874 423.2404,20.3744 C424.8104,22.7774 425.7344,24.5324 426.0114,25.6414 C430.4464,25.2724 433.3114,24.9024 434.6044,24.7174 Z M415.6644,43.8434 C412.1534,47.5384 409.1044,51.9744 406.5164,57.0554 C405.5924,58.7184 405.0384,60.1974 404.8534,61.4894 C400.5114,60.9364 398.3854,59.0874 398.3854,55.9474 C398.3854,55.2074 399.1254,53.9134 400.4184,51.8814 C403.9304,46.9844 406.8864,43.2884 409.1964,40.7944 L411.4144,38.3914 C412.2454,37.5604 412.9844,37.0984 413.6304,37.0984 C415.0174,37.0984 416.0334,37.5604 416.7724,38.2994 C417.5114,39.1304 417.9734,39.9624 417.9734,40.7944 C417.9734,41.6254 417.6044,42.2724 417.0494,42.6424 C416.5874,42.9184 416.1264,43.2884 415.6644,43.8434 Z M397.2784,41.8104 C397.0004,42.8264 396.3534,43.2884 395.4294,43.2884 C394.7834,43.2884 393.7664,43.2884 392.2884,43.1044 L387.8524,43.1044 L387.6684,55.2074 C388.4084,55.9474 389.3314,56.5934 390.2554,57.1484 C391.1794,57.8874 392.0104,58.5334 392.8424,58.9034 C393.5824,59.3654 394.2284,59.6424 394.9674,59.8264 C394.9674,59.8264 395.1524,59.9194 395.3374,59.9194 C395.4294,60.0124 395.5214,60.0124 395.6144,60.0124 C396.4454,60.3814 396.9084,61.0284 396.9084,61.9524 C396.9084,62.5064 396.7224,63.2454 396.5394,64.0774 C396.1684,65.0934 395.7994,65.8324 395.2444,66.2944 C394.6904,67.0334 393.8594,67.4044 392.7504,67.4044 C392.3804,67.4044 391.8274,67.1264 391.0864,66.3874 C390.1634,65.7394 389.0544,64.7244 387.7604,63.3384 L387.5764,63.1544 L387.4834,69.0674 C387.4834,77.1974 387.6684,84.4044 388.2224,90.7794 C388.3154,92.1654 388.5914,93.7364 389.0544,95.3994 C389.2394,95.9534 389.4234,96.5074 389.7014,97.1554 C389.8864,97.7084 390.0704,98.4474 390.0704,99.1874 C390.0704,100.0184 389.6084,100.6654 388.8704,101.2194 C388.1294,101.6814 387.2984,101.9584 386.5594,101.9584 C382.3094,101.9584 380.1844,99.6494 380.1844,95.2144 L380.1844,88.3764 C380.3694,83.3874 380.4614,77.3824 380.4614,70.5454 L380.4614,64.9084 L379.2594,68.6974 C377.7824,72.9474 376.7654,76.6424 376.1194,79.7834 L375.7504,81.3544 C374.8254,82.3714 373.6254,82.8324 371.9614,82.8324 C370.8524,82.8324 369.9294,82.1864 369.0044,80.8004 C368.0814,79.5994 367.7114,78.1204 367.7114,76.3654 C367.7114,76.0884 367.8034,75.7194 367.9894,75.1634 C368.1734,74.7944 369.0044,73.6864 370.2984,71.9304 C370.8524,70.4514 371.7764,68.4194 372.8854,65.8324 C373.9944,63.1544 375.3804,60.0124 377.2274,56.4084 C378.7064,53.6364 379.7224,51.6964 380.4614,50.4954 L380.4614,43.7504 C378.4284,44.1204 376.3964,44.5824 374.5474,45.2294 C373.8094,45.5984 373.2544,45.6914 373.0704,45.6914 C372.1464,45.6914 371.4074,45.0434 370.6674,43.7504 C369.9294,42.4574 369.5594,41.0714 369.5594,39.7784 C369.5594,38.9464 370.0214,38.3914 370.9454,38.1144 C373.9024,37.3754 377.0434,36.8214 380.2774,36.4514 L380.4614,36.4514 C380.4614,31.8314 380.3694,28.8754 380.1844,27.3974 C380.0924,26.0114 379.9074,24.7174 379.7224,23.4244 C379.4454,22.5004 379.3534,21.6684 379.3534,21.0224 C379.3534,20.0984 380.0924,18.9894 381.5704,17.8804 C383.0484,16.6794 384.2504,16.0324 385.1734,16.0324 C386.0054,16.0324 386.9294,16.3094 388.0384,16.8644 C389.0544,17.4184 389.6084,18.0654 389.6084,18.8044 C389.6084,19.2664 389.4234,20.1904 389.0544,21.5754 C388.5914,22.9614 388.3154,24.7174 388.2224,26.9354 C388.0384,29.1534 387.9464,32.0174 387.9464,35.6194 L387.9464,35.8974 L388.6854,35.8974 C389.7924,35.8974 391.5484,35.9894 393.8594,35.9894 C396.0764,36.0814 397.3704,36.8214 397.7404,38.1144 C397.7404,39.7784 397.5544,40.9794 397.2784,41.8104 Z" id="Stroke-14" stroke="#CEDAEA" stroke-width="2" mask="url(#mask-2)"></path>
            <path d="M484.9609,34.9733 C485.2369,35.1583 485.6989,35.1583 486.3469,35.1583 C486.8079,35.2503 487.3629,35.2503 487.9169,35.2503 C488.1939,35.2503 491.3359,34.8803 497.3409,33.9563 C503.2539,33.3103 506.8579,32.8483 508.0599,32.4783 C509.2609,32.1093 509.9999,31.9243 510.3689,31.9243 C511.2929,31.9243 512.2169,32.1093 512.9559,32.4783 C513.7869,32.9403 514.6179,33.4943 515.3569,34.0493 C516.0969,34.6963 516.4669,35.6193 516.4669,36.8213 C516.4669,37.7443 516.0969,38.4843 515.4509,39.1303 C514.8039,39.8693 513.9729,40.1473 513.0479,40.1473 C512.6789,40.1473 512.1239,40.1473 511.3849,39.9623 C510.6459,39.9623 509.9059,39.8693 509.3529,39.8693 C508.6129,39.8693 507.8739,39.7783 506.9499,39.7783 C505.1939,39.7783 502.4229,40.0553 498.6349,40.5173 C494.7549,41.0713 491.7979,41.5333 489.9489,41.9033 C488.0089,42.4573 486.8079,42.7343 486.4389,42.7343 C485.6069,42.7343 484.8679,42.4573 484.2219,41.7183 C483.6669,41.1633 483.2049,40.6093 482.9279,39.8693 C482.5579,39.2233 482.4659,38.4843 482.4659,37.6533 C482.4659,36.7293 483.1129,35.8053 484.2219,34.7883 C484.3139,34.8803 484.5919,34.9733 484.9609,34.9733 M484.8679,60.0123 C483.9439,60.3813 483.1129,60.7513 482.4659,60.9363 C481.7269,61.1203 481.0799,61.2133 480.5249,61.2133 C479.4159,61.2133 478.3999,60.4743 477.4769,58.9033 C476.4599,57.4253 475.9989,56.2233 475.9989,55.1153 C475.9989,54.5613 476.2749,54.1913 476.8299,54.0993 C481.6349,53.1743 486.0689,52.4353 490.1349,51.8813 C494.1069,51.4193 497.9879,50.9573 501.6839,50.5883 C507.5039,50.0343 511.2009,49.6633 512.8629,49.3863 C513.7869,49.3863 515.5429,49.1103 518.2229,48.6483 C519.0539,48.6483 520.5319,49.2943 522.7489,50.4953 C524.9669,52.0663 526.0759,53.2673 526.0759,54.0993 C526.0759,56.1313 525.0599,57.2413 523.1189,57.2413 C521.9179,57.2413 520.6249,57.1483 519.3309,56.8703 C518.0369,56.6863 516.8359,56.5013 515.6359,56.5013 C514.6179,56.5013 513.5109,56.5933 512.2169,56.5933 L512.1239,56.7783 C511.6619,57.7023 511.2929,58.8113 511.1069,60.0123 C510.2759,65.7403 509.9059,71.1923 509.9059,76.3663 C509.9059,77.8433 510.0919,78.8613 510.5539,79.5993 C511.1069,80.0623 512.0319,80.2453 513.4169,80.2453 C515.7279,80.2453 518.1299,79.5993 520.7169,78.3053 C521.0869,78.1203 521.3639,77.9363 521.6409,77.7513 C522.3799,77.7513 523.1189,77.8433 523.9499,78.0293 C524.6899,78.1203 525.3369,78.5833 525.8909,79.3223 C526.5379,80.0623 526.9069,80.9853 526.9069,81.9103 C526.9069,83.0183 526.0759,83.8503 524.5059,84.4963 C521.1789,86.0673 517.4829,86.8063 513.2329,86.8063 C509.5369,86.8063 506.7659,85.8823 504.9179,84.0343 C502.9779,82.1863 502.0529,79.2303 502.0529,75.1633 C502.0529,69.9913 502.4229,64.0773 503.2539,57.4253 L503.2539,57.1483 L501.4069,57.3323 C499.9289,57.5173 498.6349,57.6103 497.5259,57.7023 L496.7869,59.1803 C496.0479,60.5663 494.4779,64.7243 492.0749,71.5613 C489.4869,78.4913 488.1029,82.6493 487.7319,83.9423 C487.3629,85.2353 486.9929,86.2523 486.6239,87.1753 C485.7919,88.2853 484.7749,88.9323 483.4819,88.9323 C482.3729,88.9323 481.1729,88.0073 479.8789,86.3443 C478.5849,84.7743 478.0309,83.4803 478.0309,82.3713 C478.0309,82.0943 478.2159,81.6323 478.5849,80.9853 C478.9549,80.4313 479.4159,79.5993 480.1559,78.3983 C480.8029,77.1983 481.9119,74.8873 483.4819,71.5613 L487.9169,61.4903 C488.2859,60.5663 488.6559,59.7353 489.0259,58.9953 C487.4549,59.3663 486.0689,59.6423 484.8679,60.0123 M471.3789,77.9363 C471.4709,85.1433 471.5639,89.3933 471.7479,90.7793 C471.8409,91.9803 472.0249,93.0883 472.2099,94.1983 L472.2099,94.2893 C478.0309,93.7363 483.4819,93.2743 488.4719,92.9963 C495.1239,92.5353 501.5909,92.1653 507.6899,91.7953 C517.5749,91.3333 523.8579,91.0563 526.4449,90.8713 C526.9999,90.7793 528.0169,90.6873 529.4939,90.5023 C529.6789,89.7633 529.7719,89.0243 529.7719,88.3763 C530.0489,68.0503 530.2329,49.1103 530.2329,31.5543 C530.2329,29.7063 530.0489,28.2283 529.8629,27.0273 C529.4009,26.0113 528.5699,25.4563 527.3689,25.4563 C513.6029,25.4563 497.1559,26.3803 478.0309,28.1363 C475.4429,28.5053 473.5029,28.7833 472.2099,28.8753 C472.0249,29.5223 471.9329,30.1683 471.9329,30.9083 C471.2869,40.3313 471.0089,47.4473 471.0089,52.4353 C471.0089,62.2293 471.1019,70.7293 471.3789,77.9363 M528.3859,18.5273 C530.7879,18.5273 532.8199,19.0813 534.3919,20.0053 C535.7769,20.9293 536.7929,22.2233 537.5319,23.7013 C538.0869,25.3653 538.4559,27.7663 538.4559,30.8163 L538.1799,88.8383 C538.1799,90.0393 538.0869,91.4253 537.9019,92.9963 L537.9019,93.1813 C538.9189,94.1053 539.4729,94.8453 539.4729,95.4913 C539.4729,97.5243 538.4559,98.5393 536.6089,98.6323 C535.4079,98.6323 534.2069,98.4483 532.9129,98.1703 C531.6189,97.8943 530.4189,97.8013 529.3099,97.8013 C524.4119,97.8013 516.3739,97.9863 505.1029,98.5393 C493.8299,99.0943 484.4979,99.8333 477.1999,100.8503 C475.5359,101.1273 474.1499,101.4043 473.0419,101.5893 C472.3029,101.7733 471.7479,101.8673 471.1929,101.8673 C470.5469,102.4203 469.7159,102.7903 468.6069,102.7903 C466.7589,102.6063 465.3729,101.4043 464.6339,99.1873 C463.5249,95.4913 463.0639,79.9693 463.0639,52.4353 C463.0639,46.3373 463.2479,37.7443 463.7099,26.8423 C463.7099,26.2873 463.6169,25.5493 463.5249,24.6253 C463.4339,23.7013 463.3399,23.0543 463.3399,22.6853 C463.3399,20.7443 464.5409,19.7283 467.0359,19.7283 C468.1459,19.8213 469.5299,20.4673 471.2869,21.5763 C471.4709,21.7613 471.5639,21.8533 471.6559,21.8533 C494.2919,19.6353 513.2329,18.5273 528.3859,18.5273" id="Fill-15" fill="#CEDAEA" mask="url(#mask-2)"></path>
            <path d="M484.9609,34.9733 C485.2369,35.1583 485.6989,35.1583 486.3469,35.1583 C486.8079,35.2503 487.3629,35.2503 487.9169,35.2503 C488.1939,35.2503 491.3359,34.8803 497.3409,33.9563 C503.2539,33.3103 506.8579,32.8483 508.0599,32.4783 C509.2609,32.1093 509.9999,31.9243 510.3689,31.9243 C511.2929,31.9243 512.2169,32.1093 512.9559,32.4783 C513.7869,32.9403 514.6179,33.4943 515.3569,34.0493 C516.0969,34.6963 516.4669,35.6193 516.4669,36.8213 C516.4669,37.7443 516.0969,38.4843 515.4509,39.1303 C514.8039,39.8693 513.9729,40.1473 513.0479,40.1473 C512.6789,40.1473 512.1239,40.1473 511.3849,39.9623 C510.6459,39.9623 509.9059,39.8693 509.3529,39.8693 C508.6129,39.8693 507.8739,39.7783 506.9499,39.7783 C505.1939,39.7783 502.4229,40.0553 498.6349,40.5173 C494.7549,41.0713 491.7979,41.5333 489.9489,41.9033 C488.0089,42.4573 486.8079,42.7343 486.4389,42.7343 C485.6069,42.7343 484.8679,42.4573 484.2219,41.7183 C483.6669,41.1633 483.2049,40.6093 482.9279,39.8693 C482.5579,39.2233 482.4659,38.4843 482.4659,37.6533 C482.4659,36.7293 483.1129,35.8053 484.2219,34.7883 C484.3139,34.8803 484.5919,34.9733 484.9609,34.9733 Z M484.8679,60.0123 C483.9439,60.3813 483.1129,60.7513 482.4659,60.9363 C481.7269,61.1203 481.0799,61.2133 480.5249,61.2133 C479.4159,61.2133 478.3999,60.4743 477.4769,58.9033 C476.4599,57.4253 475.9989,56.2233 475.9989,55.1153 C475.9989,54.5613 476.2749,54.1913 476.8299,54.0993 C481.6349,53.1743 486.0689,52.4353 490.1349,51.8813 C494.1069,51.4193 497.9879,50.9573 501.6839,50.5883 C507.5039,50.0343 511.2009,49.6633 512.8629,49.3863 C513.7869,49.3863 515.5429,49.1103 518.2229,48.6483 C519.0539,48.6483 520.5319,49.2943 522.7489,50.4953 C524.9669,52.0663 526.0759,53.2673 526.0759,54.0993 C526.0759,56.1313 525.0599,57.2413 523.1189,57.2413 C521.9179,57.2413 520.6249,57.1483 519.3309,56.8703 C518.0369,56.6863 516.8359,56.5013 515.6359,56.5013 C514.6179,56.5013 513.5109,56.5933 512.2169,56.5933 L512.1239,56.7783 C511.6619,57.7023 511.2929,58.8113 511.1069,60.0123 C510.2759,65.7403 509.9059,71.1923 509.9059,76.3663 C509.9059,77.8433 510.0919,78.8613 510.5539,79.5993 C511.1069,80.0623 512.0319,80.2453 513.4169,80.2453 C515.7279,80.2453 518.1299,79.5993 520.7169,78.3053 C521.0869,78.1203 521.3639,77.9363 521.6409,77.7513 C522.3799,77.7513 523.1189,77.8433 523.9499,78.0293 C524.6899,78.1203 525.3369,78.5833 525.8909,79.3223 C526.5379,80.0623 526.9069,80.9853 526.9069,81.9103 C526.9069,83.0183 526.0759,83.8503 524.5059,84.4963 C521.1789,86.0673 517.4829,86.8063 513.2329,86.8063 C509.5369,86.8063 506.7659,85.8823 504.9179,84.0343 C502.9779,82.1863 502.0529,79.2303 502.0529,75.1633 C502.0529,69.9913 502.4229,64.0773 503.2539,57.4253 L503.2539,57.1483 L501.4069,57.3323 C499.9289,57.5173 498.6349,57.6103 497.5259,57.7023 L496.7869,59.1803 C496.0479,60.5663 494.4779,64.7243 492.0749,71.5613 C489.4869,78.4913 488.1029,82.6493 487.7319,83.9423 C487.3629,85.2353 486.9929,86.2523 486.6239,87.1753 C485.7919,88.2853 484.7749,88.9323 483.4819,88.9323 C482.3729,88.9323 481.1729,88.0073 479.8789,86.3443 C478.5849,84.7743 478.0309,83.4803 478.0309,82.3713 C478.0309,82.0943 478.2159,81.6323 478.5849,80.9853 C478.9549,80.4313 479.4159,79.5993 480.1559,78.3983 C480.8029,77.1983 481.9119,74.8873 483.4819,71.5613 L487.9169,61.4903 C488.2859,60.5663 488.6559,59.7353 489.0259,58.9953 C487.4549,59.3663 486.0689,59.6423 484.8679,60.0123 Z M471.3789,77.9363 C471.4709,85.1433 471.5639,89.3933 471.7479,90.7793 C471.8409,91.9803 472.0249,93.0883 472.2099,94.1983 L472.2099,94.2893 C478.0309,93.7363 483.4819,93.2743 488.4719,92.9963 C495.1239,92.5353 501.5909,92.1653 507.6899,91.7953 C517.5749,91.3333 523.8579,91.0563 526.4449,90.8713 C526.9999,90.7793 528.0169,90.6873 529.4939,90.5023 C529.6789,89.7633 529.7719,89.0243 529.7719,88.3763 C530.0489,68.0503 530.2329,49.1103 530.2329,31.5543 C530.2329,29.7063 530.0489,28.2283 529.8629,27.0273 C529.4009,26.0113 528.5699,25.4563 527.3689,25.4563 C513.6029,25.4563 497.1559,26.3803 478.0309,28.1363 C475.4429,28.5053 473.5029,28.7833 472.2099,28.8753 C472.0249,29.5223 471.9329,30.1683 471.9329,30.9083 C471.2869,40.3313 471.0089,47.4473 471.0089,52.4353 C471.0089,62.2293 471.1019,70.7293 471.3789,77.9363 Z M528.3859,18.5273 C530.7879,18.5273 532.8199,19.0813 534.3919,20.0053 C535.7769,20.9293 536.7929,22.2233 537.5319,23.7013 C538.0869,25.3653 538.4559,27.7663 538.4559,30.8163 L538.1799,88.8383 C538.1799,90.0393 538.0869,91.4253 537.9019,92.9963 L537.9019,93.1813 C538.9189,94.1053 539.4729,94.8453 539.4729,95.4913 C539.4729,97.5243 538.4559,98.5393 536.6089,98.6323 C535.4079,98.6323 534.2069,98.4483 532.9129,98.1703 C531.6189,97.8943 530.4189,97.8013 529.3099,97.8013 C524.4119,97.8013 516.3739,97.9863 505.1029,98.5393 C493.8299,99.0943 484.4979,99.8333 477.1999,100.8503 C475.5359,101.1273 474.1499,101.4043 473.0419,101.5893 C472.3029,101.7733 471.7479,101.8673 471.1929,101.8673 C470.5469,102.4203 469.7159,102.7903 468.6069,102.7903 C466.7589,102.6063 465.3729,101.4043 464.6339,99.1873 C463.5249,95.4913 463.0639,79.9693 463.0639,52.4353 C463.0639,46.3373 463.2479,37.7443 463.7099,26.8423 C463.7099,26.2873 463.6169,25.5493 463.5249,24.6253 C463.4339,23.7013 463.3399,23.0543 463.3399,22.6853 C463.3399,20.7443 464.5409,19.7283 467.0359,19.7283 C468.1459,19.8213 469.5299,20.4673 471.2869,21.5763 C471.4709,21.7613 471.5639,21.8533 471.6559,21.8533 C494.2919,19.6353 513.2329,18.5273 528.3859,18.5273 Z" id="Stroke-16" stroke="#CEDAEA" stroke-width="2" mask="url(#mask-2)"></path>
            <path d="M58.662,28.7721 C58.23,28.6961 57.801,28.7331 57.371,28.7961 C56.283,29.0081 55.174,28.7361 54.086,28.9411 C53.711,28.8651 53.339,28.9061 52.968,28.9671 C52.108,29.1751 51.223,28.9091 50.363,29.1111 C50.046,29.1201 49.728,29.1281 49.411,29.1381 C48.669,29.3421 47.897,29.0791 47.156,29.2811 C46.891,29.2911 46.627,29.2991 46.362,29.3081 C45.73,29.4981 45.067,29.2611 44.434,29.4491 C44.174,29.4591 43.913,29.4691 43.653,29.4791 C43.083,29.6711 42.477,29.4251 41.908,29.6201 C41.699,29.6291 41.491,29.6381 41.282,29.6471 C40.766,29.8361 40.213,29.6011 39.696,29.7881 L39.081,29.8171 C38.62,30.0011 38.12,29.7771 37.66,29.9571 C37.456,29.9661 37.252,29.9761 37.049,29.9871 C36.713,30.1611 36.326,29.9541 35.99,30.1281 C34.69,32.4131 33.77,34.8691 32.797,37.2981 C31.191,41.3091 29.831,45.4041 28.664,49.5631 C28.645,49.6301 28.653,49.7061 28.642,49.8931 C31.773,48.5681 34.996,47.8651 38.239,47.2381 C38.52,47.0721 38.856,47.2521 39.139,47.0951 C39.233,47.0871 39.329,47.0791 39.424,47.0711 C39.77,46.8941 40.166,47.0891 40.515,46.9271 C40.658,46.9191 40.803,46.9121 40.947,46.9041 C41.573,46.6981 42.235,46.9521 42.862,46.7541 C43.24,46.7471 43.618,46.7381 43.997,46.7301 C44.785,46.6111 45.574,46.6101 46.363,46.7301 C46.737,46.7391 47.111,46.7481 47.486,46.7561 C48.002,46.9451 48.557,46.7071 49.072,46.8981 L49.517,46.9271 C49.861,47.0961 50.257,46.8851 50.599,47.0761 C52.675,47.5031 54.76,47.9101 56.753,48.6541 C61.142,50.2941 64.886,52.8481 67.985,56.3951 C70.86,59.6851 72.915,63.3641 73.87,67.6371 C74.041,68.4011 74.172,69.1741 74.321,69.9431 C74.494,70.3461 74.287,70.7911 74.459,71.1941 C74.468,71.5101 74.475,71.8271 74.484,72.1431 C74.606,72.7071 74.603,73.2691 74.485,73.8331 C74.477,74.2091 74.469,74.5851 74.46,74.9601 C74.272,75.4751 74.507,76.0271 74.32,76.5421 C74.31,76.6941 74.301,76.8471 74.291,77.0001 C74.116,77.3381 74.33,77.7311 74.142,78.0671 C73.713,80.1421 73.298,82.2231 72.565,84.2181 C71.212,87.9101 69.217,91.2081 66.611,94.1651 C63.952,97.1811 60.865,99.6581 57.395,101.6401 C53.362,103.9441 49.01,105.4441 44.451,106.2971 C37.978,107.5101 31.466,107.8481 24.931,106.8571 C17.096,105.6681 10.35,102.3001 4.831,96.5811 C2.76,94.4341 1.212,91.9751 0.696,88.9691 C0.67,88.8161 0.699,88.6161 0.473,88.5681 L0.473,88.0601 C0.615,87.6081 0.615,87.1571 0.473,86.7051 L0.473,86.1971 C0.703,84.3081 1.349,82.5991 2.645,81.1691 C3.737,79.9651 5.059,79.2351 6.712,79.2001 C7.989,79.1721 9.243,79.3231 10.458,79.7511 C11.844,80.2411 12.805,81.1451 13.349,82.5261 C14.12,84.4851 15.223,86.2471 16.578,87.8621 C18.63,90.3081 21.223,91.9571 24.188,93.0281 C27.076,94.0711 30.068,94.5131 33.143,94.6401 C36.846,94.7921 40.46,94.4401 44.006,93.4001 C48.665,92.0341 52.486,89.3761 55.652,85.7361 C57.739,83.3361 59.374,80.6681 60.003,77.5211 C60.954,72.7631 60.317,68.2981 57.135,64.4341 C55.179,62.0581 52.522,60.8771 49.599,60.2041 C43.85,58.8771 38.218,59.5541 32.64,61.1801 C29.472,62.1041 26.341,63.1751 23.055,63.6391 C22.356,63.7381 21.658,63.8621 20.955,63.8911 C16.891,64.0621 13.808,60.4421 14.352,56.2781 C14.905,52.0571 16.075,47.9941 17.296,43.9411 C18.591,39.6441 19.996,35.3821 21.738,31.2401 C21.976,30.6731 22.145,30.0621 22.636,29.6321 C24.085,26.5381 25.744,23.5721 28.118,21.0771 C29.598,19.5211 31.259,18.2201 33.497,17.9411 C33.828,17.7581 34.215,17.9801 34.545,17.7931 L34.852,17.7691 C35.201,17.6031 35.594,17.7901 35.942,17.6301 C36.143,17.6191 36.346,17.6061 36.547,17.5941 C36.946,17.4271 37.387,17.6341 37.785,17.4591 C37.993,17.4471 38.202,17.4351 38.41,17.4221 C38.816,17.2651 39.26,17.4581 39.666,17.2921 C39.925,17.2781 40.183,17.2651 40.442,17.2511 C40.898,17.0861 41.391,17.3021 41.845,17.1201 C42.055,17.1091 42.265,17.0971 42.474,17.0861 C42.985,16.9081 43.532,17.1411 44.043,16.9501 C44.254,16.9391 44.465,16.9281 44.675,16.9181 C45.191,16.7401 45.743,16.9661 46.259,16.7831 C46.521,16.7711 46.784,16.7591 47.047,16.7471 C47.562,16.5731 48.112,16.7961 48.627,16.6131 C48.891,16.6011 49.154,16.5891 49.417,16.5781 C49.936,16.4051 50.489,16.6251 51.009,16.4441 L51.958,16.4061 C52.53,16.2321 53.133,16.4621 53.704,16.2741 C54.025,16.2611 54.347,16.2491 54.668,16.2371 C55.295,16.0641 55.951,16.2941 56.577,16.1031 C56.9,16.0911 57.223,16.0801 57.546,16.0691 C58.234,15.8911 58.948,16.1271 59.636,15.9351 L60.764,15.9001 C61.564,15.7181 62.389,15.9591 63.188,15.7651 C63.622,15.7541 64.056,15.7431 64.489,15.7311 C65.463,15.5461 66.456,15.7931 67.429,15.5971 L69.23,15.5621 C70.389,15.4181 71.551,15.5401 72.711,15.4961 C73.04,15.4841 73.376,15.5591 73.697,15.4271 C75.724,15.4271 77.752,15.3811 79.777,15.4451 C81.117,15.4871 82.439,15.6601 83.562,16.5791 C84.295,17.1771 84.435,18.0371 84.808,18.7971 C85,19.1411 84.79,19.5401 84.958,19.8861 C84.959,20.2951 84.96,20.7051 84.96,21.1141 C84.769,21.5101 85.018,21.9621 84.803,22.3551 C84.454,23.3481 84.154,24.3551 83.527,25.2341 C82.367,26.8601 80.769,27.7881 78.879,28.2841 C78.601,28.4651 78.262,28.2691 77.982,28.4351 L77.522,28.4591 C77.228,28.5981 76.915,28.5281 76.611,28.5291 C73.246,28.5351 69.882,28.5311 66.517,28.5361 C66.213,28.5361 65.9,28.4741 65.603,28.6031 C64.891,28.5171 64.179,28.5651 63.468,28.6261 C62.225,28.7931 60.977,28.6551 59.734,28.7041 C59.377,28.7181 59.012,28.6351 58.662,28.7721" id="Fill-17" fill="#CEDAEA" mask="url(#mask-2)"></path>
            <path d="M162.8417,42.8336 L162.5307,42.8626 C162.2567,43.0186 161.9277,42.8306 161.6557,43.0026 L161.3457,43.0316 C161.0717,43.1876 160.7427,42.9996 160.4727,43.1726 C159.8397,43.1316 159.1917,43.1176 158.9737,42.3346 C158.7687,41.7116 159.0247,41.0526 158.8237,40.4286 C158.8147,40.1596 158.8037,39.8916 158.7937,39.6226 C158.6227,39.2256 158.8347,38.7866 158.6567,38.3906 C158.6457,38.2356 158.6337,38.0826 158.6227,37.9286 C158.4687,37.6536 158.6547,37.3246 158.4837,37.0536 C158.0357,34.9216 157.6037,32.7946 156.8527,30.7336 C155.4397,26.8536 153.3737,23.3906 150.6347,20.2976 C147.7387,17.0266 144.2777,14.5416 140.3827,12.6316 C137.7457,11.3386 134.9667,10.4716 132.0687,9.9566 C131.5117,9.8576 130.9217,9.8806 130.3887,9.6446 C130.0037,9.4436 129.5637,9.6856 129.1777,9.4936 C129.0227,9.4856 128.8657,9.4786 128.7107,9.4706 C128.2607,9.2776 127.7667,9.5126 127.3167,9.3276 C126.4797,9.1266 126.0017,8.5436 126.1977,7.6926 C126.6307,5.8216 127.1187,3.9606 127.6637,2.1176 C127.9567,1.1286 128.8387,0.7036 129.7527,0.3946 C130.0327,0.2996 130.3657,0.3206 130.5287,0.0006 L132.9007,0.0006 C140.2327,1.0126 146.7107,4.0026 152.5117,8.5206 C157.0157,12.0296 160.6377,16.3016 163.4387,21.2866 C165.6557,25.2346 167.1807,29.4256 168.0927,33.8506 C168.2867,34.7916 168.3657,35.7426 168.3757,36.7026 C168.4297,37.3956 168.2657,38.0956 168.4627,38.7796 L168.4627,38.9496 C168.2477,38.9786 168.1927,39.1856 168.1737,39.3186 C167.8967,41.2256 166.8347,42.3146 164.9027,42.5226 C164.6267,42.6796 164.2977,42.4936 164.0247,42.6636 L163.7167,42.6926 C163.4427,42.8496 163.1127,42.6616 162.8417,42.8336" id="Fill-18" fill="#90C32F" mask="url(#mask-2)"></path>
            <path d="M127.6103,47.4039 L127.3083,47.4329 C127.0343,47.5909 126.7043,47.4029 126.4313,47.5749 C122.1963,48.1399 118.1143,49.2979 114.2083,50.9969 C110.4373,52.6369 106.9413,54.7449 103.8583,57.5169 C101.7103,59.4499 99.8313,61.5799 98.4813,64.1379 C97.5833,65.8409 96.8233,67.6059 96.6473,69.5609 C96.4773,69.8359 96.6713,70.1709 96.5023,70.4459 C96.4933,70.5429 96.4843,70.6389 96.4763,70.7369 C96.3563,72.0179 96.3603,73.2999 96.4733,74.5809 C96.4803,74.6709 96.4873,74.7609 96.4943,74.8509 C96.6703,75.1369 96.4913,75.4799 96.6413,75.7699 C96.8633,77.8699 97.5463,79.7999 98.8463,81.4729 C101.1403,84.4269 104.2413,86.0189 107.8583,86.7069 C108.0483,86.7429 108.2513,86.7189 108.4473,86.7229 C108.7933,86.8829 109.1813,86.6989 109.5273,86.8569 C110.3193,86.9639 111.1123,86.9659 111.9043,86.8599 C112.2963,86.6799 112.7343,86.9079 113.1233,86.7169 C115.1353,86.5499 116.9643,85.8029 118.7023,84.8499 C122.3213,82.8649 124.9763,79.9209 126.9493,76.3279 C127.1723,75.9239 127.0853,75.7829 126.6313,75.8829 C126.3563,76.0419 126.0253,75.8529 125.7533,76.0249 C125.6503,76.0339 125.5473,76.0429 125.4453,76.0519 C125.1723,76.2119 124.8403,76.0219 124.5683,76.1939 C124.4653,76.2039 124.3633,76.2139 124.2593,76.2229 C123.9863,76.3809 123.6573,76.1899 123.3853,76.3649 C122.4423,76.2759 121.5743,76.7159 120.6403,76.7719 C120.3473,76.7889 119.9943,76.7639 119.6903,76.8889 C119.4063,77.0599 119.0653,76.8819 118.7783,77.0339 C118.6873,77.0429 118.5953,77.0499 118.5053,77.0589 C118.2203,77.2289 117.8813,77.0499 117.5953,77.2029 C117.5043,77.2119 117.4113,77.2199 117.3193,77.2289 C117.0363,77.3979 116.6973,77.2189 116.4123,77.3729 C116.3193,77.3819 116.2263,77.3899 116.1333,77.3999 C115.8513,77.5669 115.5143,77.3859 115.2313,77.5429 C115.1363,77.5519 115.0423,77.5609 114.9473,77.5699 C114.6673,77.7359 114.3313,77.5549 114.0483,77.7129 C113.9533,77.7219 113.8573,77.7309 113.7613,77.7399 C113.4823,77.9059 113.1473,77.7219 112.8673,77.8829 C112.7703,77.8919 112.6733,77.9019 112.5763,77.9109 C112.2973,78.0739 111.9633,77.8919 111.6823,78.0519 C111.5863,78.0619 111.4883,78.0709 111.3903,78.0809 C111.1133,78.2439 110.7793,78.0589 110.5013,78.2229 C110.4023,78.2319 110.3033,78.2419 110.2053,78.2519 C109.9273,78.4129 109.5943,78.2279 109.3183,78.3929 C109.2183,78.4019 109.1193,78.4119 109.0193,78.4209 C108.7443,78.5829 108.4113,78.3949 108.1353,78.5629 C107.5783,78.6499 107.3703,78.4359 107.5243,77.8769 C108.3283,74.9709 109.0413,72.0369 109.9563,69.1679 C110.6133,67.1059 111.5343,65.1229 113.7123,64.1529 C114.1653,63.9519 114.6513,63.8239 115.1223,63.6619 C115.4003,63.4989 115.7333,63.6829 116.0113,63.5189 C116.1103,63.5089 116.2093,63.5009 116.3073,63.4909 C116.5853,63.3299 116.9173,63.5149 117.1933,63.3489 C117.2933,63.3399 117.3933,63.3299 117.4933,63.3199 C117.7693,63.1609 118.1003,63.3469 118.3753,63.1779 C118.4763,63.1689 118.5783,63.1599 118.6783,63.1499 C118.9543,62.9919 119.2853,63.1789 119.5573,63.0079 C119.6603,62.9989 119.7623,62.9889 119.8653,62.9799 C120.1383,62.8219 120.4683,63.0109 120.7403,62.8389 L121.0503,62.8089 C121.3233,62.6529 121.6523,62.8439 121.9223,62.6679 C123.1693,62.5949 124.3993,62.4019 125.6203,62.1429 C125.9053,61.9739 126.2443,62.1509 126.5323,61.9999 C126.6233,61.9909 126.7143,61.9819 126.8053,61.9729 C127.0893,61.8039 127.4263,61.9829 127.7133,61.8299 C127.8053,61.8209 127.8983,61.8109 127.9913,61.8019 C128.2733,61.6349 128.6103,61.8149 128.8933,61.6599 C128.9883,61.6499 129.0833,61.6409 129.1773,61.6319 C129.4583,61.4669 129.7943,61.6469 130.0763,61.4899 C130.1723,61.4799 130.2673,61.4699 130.3633,61.4619 C130.6473,61.3009 130.9833,61.4729 131.2693,61.3219 C131.4193,61.3099 131.5693,61.2999 131.7183,61.2879 C132.2913,61.1029 132.8963,61.3419 133.4683,61.1499 C133.7643,61.2179 134.0613,61.2249 134.3573,61.1509 C134.8173,61.3289 135.3143,61.1139 135.7753,61.2859 C136.9503,61.6139 138.1393,61.8619 139.1893,62.5739 C140.6643,63.5749 141.3283,65.0219 141.6963,66.6739 C141.7743,67.0259 141.8273,67.3849 141.8913,67.7419 C141.9973,68.3599 141.9973,68.9789 141.8913,69.5969 C141.8813,69.8039 141.8693,70.0099 141.8583,70.2169 C141.7103,70.5039 141.8693,70.8339 141.7263,71.1209 C141.2533,73.2389 140.7523,75.3479 140.0113,77.3949 C138.3203,82.0719 135.9693,86.3469 132.4613,89.9279 C128.9363,93.5249 124.7393,96.0009 119.9433,97.5019 C117.9193,98.1339 115.8603,98.5969 113.7633,98.9009 C113.4193,99.0879 113.0213,98.8829 112.6733,99.0499 C112.5863,99.0549 112.4983,99.0609 112.4103,99.0679 C111.9023,99.2839 111.3483,99.0229 110.8393,99.2219 C110.6843,99.2299 110.5303,99.2379 110.3753,99.2459 C108.2883,99.3669 106.2013,99.3639 104.1143,99.2479 C103.9663,99.2379 103.8193,99.2279 103.6713,99.2179 C103.3263,99.0519 102.9313,99.2559 102.5893,99.0729 C98.1473,98.4979 94.1513,96.8789 90.5963,94.1219 C87.9543,92.0709 85.9313,89.5239 84.3873,86.6019 C83.2933,84.5319 82.5983,82.2919 82.1123,79.9959 C82.0613,79.7569 82.2103,79.4949 82.0813,79.2509 C81.9253,78.9709 82.1043,78.6399 81.9413,78.3629 C81.9333,78.2639 81.9243,78.1649 81.9163,78.0659 C81.7233,77.5549 81.9673,77.0049 81.7723,76.4949 C81.7653,76.2279 81.7573,75.9629 81.7503,75.6959 C81.6313,75.1329 81.6263,74.5689 81.7533,74.0059 C81.7603,73.7449 81.7673,73.4839 81.7753,73.2239 C81.9643,72.7079 81.7203,72.1509 81.9213,71.6349 C81.9283,71.5409 81.9363,71.4469 81.9443,71.3519 C82.1203,71.0119 81.8983,70.6149 82.0973,70.2789 C82.1383,70.2419 82.1433,70.2009 82.1113,70.1549 C82.2833,69.8789 82.0753,69.5349 82.2693,69.2609 C82.5203,67.4339 83.0793,65.6919 83.6653,63.9489 C85.0133,59.9399 86.9653,56.2399 89.5123,52.8879 C91.8783,49.7759 94.6593,47.0559 97.7793,44.6609 C100.9303,42.2419 104.2723,40.1579 107.8243,38.4079 C112.1203,36.2919 116.6183,34.7449 121.3373,33.8679 C121.5263,33.8329 121.7093,33.7529 121.8943,33.6929 C122.1673,33.5149 122.5043,33.7169 122.7753,33.5429 C122.8783,33.5339 122.9793,33.5249 123.0823,33.5159 C123.4253,33.3519 123.8143,33.5429 124.1593,33.3789 C124.4213,33.3699 124.6813,33.3609 124.9433,33.3509 C125.5073,33.2369 126.0713,33.2269 126.6333,33.3569 C126.7813,33.3649 126.9293,33.3719 127.0773,33.3799 C127.3633,33.5369 127.7083,33.3449 127.9893,33.5309 C129.2123,33.9369 130.4073,34.3829 131.4373,35.2039 C133.4513,36.8059 134.6683,38.8869 135.2673,41.3609 C135.3203,41.5779 135.3943,41.7889 135.4593,42.0019 C135.6243,42.4029 135.4203,42.8439 135.5933,43.2449 C135.5253,43.4289 135.5253,43.6129 135.5933,43.7979 C135.4323,44.1409 135.6093,44.5259 135.4643,44.8719 C135.2843,45.4799 135.1033,46.0889 134.9223,46.6959 C134.6033,46.9679 134.1883,46.7089 133.8533,46.8919 C133.4763,46.8189 133.1013,46.8609 132.7283,46.9219 C132.1003,47.1099 131.4413,46.8719 130.8133,47.0619 C130.6043,47.0739 130.3953,47.0859 130.1873,47.0959 C129.8373,47.2499 129.4473,47.0739 129.0983,47.2289 C128.8963,47.2439 128.6943,47.2579 128.4923,47.2709 C128.2133,47.4119 127.8863,47.2419 127.6103,47.4039" id="Fill-19" fill="#CEDAEA" mask="url(#mask-2)"></path>
            <path d="M123.8798,24.3717 C123.5918,24.2277 123.3268,24.5037 123.0138,24.3897 C122.1998,24.0917 121.8988,23.6957 122.1018,22.8717 C122.4768,21.3537 122.8508,19.8317 123.3328,18.3467 C123.9508,16.4427 125.5458,15.9337 127.3278,15.7847 C127.6918,15.7547 128.0588,15.7717 128.4248,15.7677 C128.7728,15.9277 129.1638,15.7407 129.5108,15.9057 C131.3268,16.3167 133.1768,16.6007 134.9258,17.2777 C143.9278,20.7697 149.6278,27.1607 151.8688,36.5837 C152.0678,37.4237 152.2178,38.2757 152.3908,39.1227 C152.5698,39.5757 152.3418,40.0697 152.5298,40.5227 C152.5288,40.6567 152.5288,40.7907 152.5278,40.9257 C152.3538,41.2657 152.5688,41.6587 152.3788,41.9967 C151.9168,43.3457 151.1078,44.3457 149.6638,44.7127 C149.3848,44.8887 149.0458,44.6997 148.7638,44.8597 C148.6678,44.8697 148.5728,44.8797 148.4778,44.8897 C148.1958,45.0507 147.8618,44.8717 147.5798,45.0297 C147.4838,45.0397 147.3878,45.0497 147.2918,45.0587 C147.0108,45.2187 146.6768,45.0417 146.3958,45.1987 C146.2988,45.2087 146.2028,45.2187 146.1068,45.2277 C145.8258,45.3897 145.4928,45.2097 145.2128,45.3687 C144.0998,45.3017 143.9738,45.1577 143.9218,43.9057 C144.0488,42.7947 144.0328,41.6837 143.9258,40.5727 C143.9168,40.4267 143.9068,40.2797 143.8988,40.1327 C143.7348,39.8477 143.9068,39.5107 143.7578,39.2237 C143.4288,38.0847 143.2238,36.9217 142.7938,35.7997 C141.6488,32.8077 139.8188,30.3257 137.3738,28.3057 C135.3248,26.6117 132.9978,25.4257 130.3958,24.7897 C130.0578,24.7077 129.6568,24.8467 129.3738,24.5457 C129.1048,24.3657 128.7698,24.5707 128.4998,24.3947 C128.4018,24.3877 128.3048,24.3797 128.2078,24.3717 C126.7658,24.2537 125.3218,24.2527 123.8798,24.3717" id="Fill-20" fill="#E4077B" mask="url(#mask-2)"></path>
            <path d="M300.5605,174.5856 C300.5605,155.1246 284.3295,142.3506 264.8685,142.3506 L218.3065,142.3506 L218.3065,249.0576 L241.6505,249.0576 L241.6505,157.9126 L259.9905,157.9126 C270.8985,157.9126 275.5495,166.8086 275.5495,174.5856 C275.5495,182.8246 269.2025,191.5976 250.7985,197.2056 L277.2195,249.0576 L303.8925,249.0576 L280.8895,203.9066 C294.9525,196.9516 300.5605,185.6256 300.5605,174.5856" id="Fill-21" fill="#FFFFFF" mask="url(#mask-2)"></path>
            <polygon id="Fill-22" fill="#FFFFFF" mask="url(#mask-2)" points="160.8515 210.4528 140.1235 142.3498 116.7825 142.3498 149.3945 249.0568 173.1715 249.0568 203.8875 142.3498 180.5455 142.3498"></polygon>
            <path d="M5.658,149.94 L101.515,149.94 L101.515,142.131 L5.658,142.131 L5.658,149.94 Z M0,185.25 L0,177.442 L107.174,177.442 L107.174,185.25 L54.549,185.25 L36.894,240.591 L73.223,240.591 L62.585,198.944 L89.973,198.944 L102.534,248.4 L3.621,248.4 L23.767,185.25 L0,185.25 Z" id="Fill-23" fill="#FFFFFF" mask="url(#mask-2)"></path>
            <path d="M328.2744,187.6266 L320.6914,155.0326 L342.4204,155.0326 L350.0034,187.6266 L328.2744,187.6266 Z M316.2784,149.2616 L316.2784,141.7926 L416.3224,141.7926 L416.3224,149.2616 L383.1634,149.2616 L379.5424,153.9016 L379.5424,195.6616 L380.2204,195.6616 L392.6704,155.0326 L414.2854,155.0326 L401.9494,195.6616 L420.5094,195.6616 L420.5094,203.1316 L379.5424,203.1316 L379.5424,249.4186 L353.1724,249.4186 L353.1724,203.1316 L312.2044,203.1316 L312.2044,195.6616 L353.1724,195.6616 L353.1724,149.2616 L316.2784,149.2616 Z" id="Fill-24" fill="#FFFFFF" mask="url(#mask-2)"></path>
            <path d="M461.517,240.705 L508.371,240.705 L508.371,191.136 L461.517,191.136 L461.517,240.705 Z M434.694,247.835 L434.694,183.779 L537.682,183.779 L535.758,188.645 L535.758,247.835 L434.694,247.835 Z M431.526,174.725 L446.69,141.905 L476.455,141.905 L464.685,167.256 L509.275,167.256 L502.371,151.073 L529.872,151.073 L539.945,174.725 L431.526,174.725 Z" id="Fill-25" fill="#FFFFFF" mask="url(#mask-2)"></path>
        </g>
    </g>
</svg>